<svg viewBox="0 0 512 512" xmlns="http://www.w3.org/2000/svg"><path d="M260 151.22c35.152 0 64 28.848 64 64s-28.848 64-64 64-64-28.848-64-64 28.848-64 64-64zm0 32c-17.856 0-32 14.144-32 32s14.144 32 32 32 32-14.144 32-32-14.144-32-32-32zm0-93.78c40.898 0 72.197 16.63 94.385 38.337 21.933 21.457 38.813 52.164 38.813 92.28 0 39.858-16.9 70.37-38.407 91.877l-94.798 93.15-94.377-93.142c-21.936-21.46-38.813-51.78-38.813-91.884 0-40.078 16.907-70.85 38.812-92.28 22.078-21.6 53.792-38.34 94.386-38.34zm0-32.866c-50.17 0-90.997 19.207-117.513 47.745-32.38 34.85-46.775 64.78-48.55 115.738 0 43.53 16.05 81.813 48.598 115.393L260 450.99l117.55-115.623c32.56-33.853 48.513-72.11 48.513-115.505 0-43.368-16.032-81.703-48.55-115.54C349.328 77.04 310.6 56.573 260 56.573z"/></svg>