<svg viewBox="0 0 512 512" xmlns="http://www.w3.org/2000/svg"><path d="M272 48c35.36 0 64 28.64 64 64h96v112h-32c-19.04 0-32 12.96-32 32s12.96 32 32 32h32v112h-96c0 35.36-28.64 64-64 64s-64-28.64-64-64h-96v-80c-35.36 0-64-28.64-64-64s28.64-64 64-64v-80h96c0-35.36 28.64-64 64-64zm0 32c-19.04 0-32 12.96-32 32v32h-96v80h-32c-19.04 0-32 12.96-32 32s12.96 32 32 32h32v80h96v32c0 19.04 12.96 32 32 32s32-12.96 32-32v-32h96v-48c-35.36 0-64-28.64-64-64s28.64-64 64-64v-48h-96v-32c0-19.04-12.96-32-32-32z"/></svg>