<svg viewBox="0 0 512 512" xmlns="http://www.w3.org/2000/svg"><path d="M246.336 282.65c8.682 0 16.138 7.455 16.138 16.138 0 39.247-17.137 70.538-37.92 91.32-20.802 20.802-52.042 37.918-91.32 37.918-8.682 0-16.136-7.455-16.136-16.138 0-8.682 7.454-16.137 16.136-16.137 29.524 0 52.926-12.886 68.5-28.46 15.59-15.593 28.464-38.957 28.464-68.502 0-8.683 7.455-16.138 16.138-16.138zm129.238-182.01c0 8.966-7.174 16.36-16.138 16.36-3.6 0-5.245-.557-7.61-2.025-30.3-15.532-62.755-26.25-105.49-26.25-19.13 0-37.213 2.298-54.263 6.89-17.1 4.603-34.194 11.064-51.32 19.407-2.56 1.28-5.067 1.977-7.52 1.977-8.68 0-16.135-7.456-16.135-16.138 0-6.148 2.953-10.997 8.5-14.097 24.652-14.45 55.738-24.336 90.126-28.424 10.6-1.26 20.805-1.89 30.612-1.89 48.243 0 89.446 12.283 120.7 30.294 5.528 3.09 8.538 7.872 8.538 13.897zM119.98 201.825c-8.842 0-16.138-7.333-16.138-16.138 0-4.782 1.65-7.844 3.953-10.72 11.393-14.717 28.387-26.91 44.983-36.517 25.314-14.652 55.167-25.45 93.557-25.45 48.16 0 84.927 17.136 113.534 38.84 18.804 14.268 36.127 32.79 47.524 54.16 1.29 2.58 1.977 5.167 1.977 7.74 0 8.846-7.332 16.36-16.136 16.36-6.84 0-10.91-3.603-13.832-7.987-5.917-9.172-11.297-17.503-18.587-25.376-20.384-22.83-47.514-40.29-82.33-47.976-10.536-2.324-21.25-3.486-32.15-3.486-39.956 0-72.278 14.96-96.186 34.036-6.734 5.27-12.23 11.437-18.374 17.29-3.09 3.09-6.16 5.224-11.796 5.224zm13.254 113.102c-8.683 0-16.137-7.455-16.137-16.138 0-39.248 17.136-70.54 37.918-91.32 20.802-20.804 52.043-37.918 91.32-37.918 39.25 0 70.538 17.136 91.32 37.918 20.803 20.802 37.92 52.042 37.92 91.32 0 48.38-13.343 86.244-30.725 118.358-6.276 11.594-14.346 24.206-22.436 33.268-3.14 3.14-6.666 5.888-12.46 5.888-8.802 0-16.137-7.296-16.137-16.138 0-3.557 1.203-6.93 3.477-10.014 5.61-7.678 10.792-14.567 15.812-22.836 17.85-29.234 30.192-64.732 30.192-108.526 0-29.524-12.886-52.926-28.462-68.5-15.59-15.59-38.958-28.463-68.5-28.463-29.524 0-52.926 12.887-68.502 28.462-15.59 15.59-28.462 38.956-28.462 68.5 0 8.684-7.456 16.14-16.138 16.14zm-16.136 40.412c0-8.683 7.454-16.138 16.137-16.138 18.827 0 31.502-11.194 37.26-24.63 2.1-4.9 3.153-10.147 3.153-15.782 0-22.09 9.517-39.504 21.24-51.227 11.72-11.72 29.357-21.46 51.448-21.46 22.07 0 39.516 9.75 51.227 21.46 11.722 11.723 21.46 29.14 21.46 51.228 0 34.363-9.352 63.848-22.102 87.753-14.445 27.087-35.554 50.64-61.013 67.028-2.467 1.543-4.987 2.734-8.79 2.734-8.84 0-16.137-7.335-16.137-16.138 0-6.555 2.947-10.134 6.923-13.26 8.048-6.557 15.71-11.526 23.05-18.866 25.525-25.272 45.795-62.136 45.795-109.25 0-18.827-11.194-31.502-24.63-37.26-4.9-2.1-10.146-3.153-15.782-3.153-18.828 0-31.5 11.195-37.26 24.632-2.1 4.9-3.153 10.146-3.153 15.78 0 22.094-9.52 39.73-21.24 51.448-11.733 11.733-29.336 21.24-51.448 21.24-8.683 0-16.137-7.455-16.137-16.137z"/></svg>