<svg viewBox="0 0 512 512" xmlns="http://www.w3.org/2000/svg"><path d="M397.008 64.48l-.016-.017c13.392 0 26.37 5.393 36.512 15.52 20.256 20.272 20.256 53.232 0 73.505v.48l-203.008 200-8 7.52c-1.968 12.687-7.36 25.136-17.008 35.008l-.48.48C183.92 418.063 142.64 447.983 80 447.983H50.496l16-24.992c15.488-23.584 21.92-44.865 27.008-64 5.072-19.168 7.664-36.96 20.992-51.49 9.04-9.838 20.512-15.758 32.512-18l9.984-9.502L360 80c10.128-10.128 23.616-15.52 37.008-15.52zm0 31.52c-5.023 0-10.24 2.24-14.512 6.496L237.504 244.992 266.496 274l144.512-142.992c8.53-8.544 8.53-19.968 0-28.512-4.27-4.256-8.992-6.496-14-6.496zM214.48 267.52l-.017-.016-24 23.49L219.488 320l24-23.52zm-54.96 52.96h-.016c-8.095-.225-15.952 2.432-21.503 8.512-4.272 4.656-8.175 18.43-13.52 38.51-3.44 13.01-8.8 28.69-16.48 45.49 35.985-6.737 60.592-24.592 74.512-38.512 13.216-13.217 12.93-33.09.48-44.48-6.67-6.128-15.408-9.264-23.472-9.52z"/></svg>