<svg viewBox="0 0 512 512" xmlns="http://www.w3.org/2000/svg"><path d="M336.844 279.417v29.745h-107.92v-133.98h29.744v104.235h78.176zm-78.176-182.4c38.322.732 72.59 11.604 102.8 32.614l42.547-42.547 20.925 20.925-40.32 40.523c17.884 18.648 31.696 38.58 41.434 59.802 9.892 22.547 14.9 46.857 15.024 72.928-.32 33.653-8.716 64.672-25.192 93.053-16.777 27.767-38.78 49.77-66.008 66.008-28.997 16.634-60.014 25.032-93.052 25.192-33.655-.32-64.673-8.716-93.053-25.19-27.768-16.78-49.77-38.782-66.008-66.01-16.635-28.997-25.03-60.014-25.192-93.052.442-45.904 15.454-86.107 45.036-120.607 30.322-34.057 67.427-54.576 111.313-61.557v-24.46h-52.117V44.89h133.98v29.746h-52.12v22.38zm-1.843 338.75c21.572-.247 41.585-4.303 60.037-12.165 38.22-17.172 65.654-44.608 82.306-82.304 7.987-19.07 12.042-39.082 12.165-60.038-.248-21.57-4.303-41.585-12.165-60.037-17.175-38.22-44.61-65.656-82.306-82.306-19.068-7.987-39.08-12.043-60.037-12.165-21.572.248-41.585 4.303-60.037 12.165-38.22 17.173-65.653 44.607-82.306 82.306-7.987 19.068-12.042 39.08-12.165 60.037.248 21.572 4.303 41.585 12.165 60.038 17.175 38.22 44.61 65.653 82.306 82.304 19.068 7.988 39.08 12.043 60.037 12.166z"/></svg>