<svg viewBox="0 0 512 512" xmlns="http://www.w3.org/2000/svg"><path d="M157.322 395.832c0-28.696 11.922-51.57 26.508-67.92V108c0-22.09 9.517-39.505 21.24-51.227 11.72-11.72 29.357-21.46 51.448-21.46 22.07 0 39.518 9.75 51.227 21.46 11.722 11.72 21.462 29.14 21.462 51.226V327.91c14.604 16.37 26.508 39.195 26.508 67.92 0 29.79-13.44 52.868-29.678 68.168-16.097 15.165-40.117 27.714-69.52 27.714-29.376 0-53.44-12.566-69.517-27.714-16.254-15.315-29.678-38.357-29.678-68.168zm83.06-134.32h32.274v87.854c12.57 4.78 22.055 14.75 26.195 27.86 1.386 4.39 2.082 8.903 2.082 13.525 0 20.63-12.32 34.623-27.06 40.94-5.408 2.318-11.208 3.474-17.353 3.474-20.63 0-34.622-12.318-40.94-27.058-2.318-5.408-3.474-11.208-3.474-17.355 0-16.354 7.922-28.076 17.463-35.384 3.265-2.502 6.876-4.503 10.81-6v-87.853zm16.137 197.928c19.74 0 35.937-8.364 46.794-18.462 10.89-10.13 20.126-25.71 20.126-45.588 0-24.644-12.796-41.655-26.508-54.35V108c0-18.827-11.196-31.503-24.632-37.26-4.9-2.1-10.146-3.154-15.78-3.154-18.827 0-31.503 11.197-37.262 24.633-2.1 4.9-3.152 10.144-3.152 15.78v233.04c-13.725 12.708-26.508 29.7-26.508 54.35 0 19.863 9.247 35.47 20.126 45.588 10.87 10.11 27.036 18.46 46.795 18.46v.002z"/></svg>