<svg viewBox="0 0 512 512" xmlns="http://www.w3.org/2000/svg"><path d="M256 26c46.02 0 84.512 13.177 115.21 31.087 33.746 19.684 62.22 48.158 81.904 81.903 17.93 30.734 31.087 69.148 31.087 115.21 0 46.022-13.176 84.513-31.086 115.212-19.684 33.745-48.158 62.22-81.903 81.904-30.732 17.93-69.146 31.086-115.21 31.086-17.75 0-31.892-7.87-41.286-17.263-9.403-9.405-17.265-23.526-17.265-41.287 0-20.57 6.36-34.643 14.462-47.04 4.752-7.267 8.945-14.596 11.81-23.49 1.323-4.106 2.003-8.87 2.003-14.297 0-16.35-7.447-29.812-16.092-38.458-8.654-8.655-22.096-16.09-38.458-16.09-23.155 0-34.304 13.285-50.405 20.797-9.442 4.406-20.38 7.477-34.42 7.477-17.75 0-31.893-7.87-41.287-17.265C35.66 286.083 27.8 271.964 27.8 254.2c0-46.02 13.176-84.51 31.086-115.21 19.684-33.745 48.158-62.22 81.903-81.903C171.625 39.097 209.73 26 256 26zm0 424.128c39.457 0 72.48-11.356 98.725-26.786 28.894-16.987 53.428-41.523 70.416-70.416 15.447-26.273 26.787-59.23 26.787-98.725 0-39.456-11.357-72.48-26.786-98.723-16.987-28.895-41.522-53.43-70.415-70.416-26.273-15.446-59.23-26.785-98.725-26.785-39.457 0-72.48 11.356-98.725 26.786-28.894 16.988-53.428 41.523-70.416 70.417-15.447 26.272-26.787 59.23-26.787 98.724 0 12.253 7.336 20.454 16.027 24.233 3.125 1.358 6.525 2.044 10.25 2.044 23.105 0 34.148-13.243 50.06-20.793 9.52-4.517 20.382-7.483 34.765-7.483 26.51 0 47.476 11.305 61.498 25.328C246.71 291.563 258 312.498 258 339.026c0 20.63-6.285 34.888-14.473 47.165-4.76 7.146-8.954 14.53-11.8 23.365-1.323 4.107-2.002 8.87-2.002 14.297 0 12.253 7.335 20.454 16.026 24.232 3.126 1.358 6.526 2.044 10.25 2.044zM142.9 167.376c14.04 0 23.56 8.45 27.9 18.434 1.587 3.65 2.374 7.613 2.374 11.84 0 14.044-8.45 23.56-18.434 27.902-3.65 1.587-7.614 2.374-11.84 2.374-14.044 0-23.562-8.45-27.902-18.435-1.587-3.648-2.374-7.61-2.374-11.84 0-14.04 8.45-23.56 18.434-27.9 3.65-1.587 7.613-2.374 11.84-2.374zm84.825-56.55c14.042 0 23.561 8.45 27.9 18.434 1.588 3.65 2.375 7.612 2.375 11.84 0 14.04-8.45 23.562-18.434 27.902-3.65 1.587-7.612 2.374-11.84 2.374-14.043 0-23.56-8.45-27.902-18.435-1.587-3.65-2.374-7.612-2.374-11.84 0-14.042 8.45-23.56 18.434-27.9 3.65-1.588 7.614-2.375 11.84-2.375zm113.1 88.824c-14.042 0-23.56-8.45-27.9-18.434-1.587-3.65-2.374-7.613-2.374-11.84 0-14.043 8.45-23.56 18.434-27.902 3.65-1.587 7.614-2.374 11.84-2.374 14.044 0 23.56 8.45 27.902 18.435 1.587 3.65 2.374 7.612 2.374 11.84 0 14.043-8.45 23.56-18.434 27.9-3.65 1.588-7.612 2.375-11.84 2.375zM369.1 252.2c14.043 0 23.562 8.45 27.902 18.436 1.587 3.65 2.374 7.612 2.374 11.84 0 14.04-8.45 23.562-18.434 27.902-3.65 1.587-7.612 2.374-11.84 2.374-14.042 0-23.562-8.45-27.902-18.435-1.587-3.65-2.374-7.613-2.374-11.84 0-14.044 8.45-23.56 18.434-27.902 3.65-1.587 7.614-2.374 11.84-2.374zm-56.55 84.826c14.043 0 23.56 8.45 27.9 18.435 1.588 3.65 2.375 7.614 2.375 11.84 0 14.044-8.45 23.562-18.433 27.903-3.65 1.587-7.614 2.374-11.84 2.374-14.044 0-23.563-8.45-27.902-18.435-1.587-3.65-2.374-7.612-2.374-11.84 0-14.043 8.45-23.56 18.434-27.902 3.65-1.587 7.612-2.374 11.84-2.374z"/></svg>