<svg viewBox="0 0 512 512" xmlns="http://www.w3.org/2000/svg"><path d="M452.232 227.75c7.807-12.757 13.693-28.567 13.693-47.702 0-27.49-11.634-48.842-26.24-63.187-14.638-14.377-36.113-25.602-63.654-25.602-25.758 0-43.24 9.096-58.19 20.782-17.427 13.626-32.035 31.13-47.83 47.212-8.425-8.427-16.7-16.96-24.672-25.56-14.134-15.242-29.56-28.738-49.574-37.293-9.367-4.005-19.953-6.026-31.797-6.026-27.385 0-48.933 11.767-63.42 26.254-14.502 14.5-26.253 36.014-26.253 63.42 0 7.502 1.25 15.843 2.918 23.427H44.158c-1.494-7.174-2.14-14.727-2.14-23.206 0-37.254 15.945-66.674 35.594-86.458C97.288 74.004 126.672 58.1 163.967 58.1c39 0 63.482 14.93 84.09 34.112 7.023 6.536 14.336 13.66 21.942 21.366 21.102-21.387 40.654-41.813 72.776-51.202 9.79-2.86 20.876-4.277 33.255-4.277 36.946 0 66.505 15.995 86.125 35.482 19.648 19.515 35.604 49.032 35.604 86.023 0 33.733-13.44 60.698-30.007 80.42h-105.59c-7.16-7.23-14.32-14.464-21.48-21.695L270 309.234l-98.962-99.182-49.758 49.973h-4.617L270 413.36 399.06 284.3h45.64L270 459 77.507 266.727c-10.988-10.99-19.052-23.928-25.742-38.98h55.93l63.343-63.117L270 263.374l70.686-70.464 35.066 34.84h76.48z"/></svg>