<svg viewBox="0 0 512 512" xmlns="http://www.w3.org/2000/svg"><path d="M324 341h83v26h-83v-26zm-75 75H44.496C23 416 6 398.64 6 377.52c0-10.24 4.256-20.272 11.52-27.52L54 313.008V95.998 96h352v111h-32v-79H86v176h163v32H76.992h.016L40 372.496c-1.233 1.248-2 3.248-2 5.008 0 3.84 3 6.496 6.496 6.496H249v32zm19-211h192c26.32 0 48 21.68 48 48v126c0 26.32-21.68 48-48 48H268c-26.32 0-48-21.68-48-48V253c0-26.32 21.68-48 48-48zm0 32c-8.88 0-16 7.12-16 16v126c0 8.88 7.12 16 16 16h192c8.88 0 16-7.12 16-16V253c0-8.88-7.12-16-16-16H268zm138-30zM249 416zm0-112zm0 80z"/></svg>