<svg viewBox="0 0 512 512" xmlns="http://www.w3.org/2000/svg"><path d="M128 239v9H68v-28h32v-41h28v60zM96 352h32v80h256v-80h32v112H96V352zm159.22-173.3c-17.615 0-31.7 14.084-31.7 31.7 0 17.615 14.085 31.7 31.7 31.7s31.7-14.085 31.7-31.7c0-17.616-14.085-31.7-31.7-31.7zm0-30.68c34.362 0 62.38 28.02 62.38 62.38 0 17.158-6.982 32.77-18.253 44.084 24.927 15.032 41.773 42.31 41.773 73.516v7.5h-30.68V328c0-30.6-24.62-55.22-55.22-55.22S200 297.4 200 328v7.5h-30.68V328c0-31.208 16.848-58.48 41.775-73.51-11.272-11.316-18.255-26.93-18.255-44.09 0-34.36 28.018-62.38 62.38-62.38zM100 305v-41h28v69H68v-28h32zM96 48h320v306h-32V80H128v80H68v-28h28V48z"/></svg>