<svg viewBox="0 0 512 512" xmlns="http://www.w3.org/2000/svg"><path d="M272.138 377.242h-32.275v-32.275h32.275v32.275zm-1-60.55V122.763h-31.275V316.69h31.275zM41.936 90.488h2c26.487 0 49.393-2.048 68.718-6.14 22.75-5.167 43.884-13.91 63.4-26.234 13.006-8.194 25.88-14.25 38.624-18.165 19.65-6.037 40.66-7.556 63.032-4.556 13.796 2.155 25.435 5.54 34.916 10.154 9.48 4.614 18.445 9.552 26.89 14.815 26.15 16.298 57.196 25.9 93.138 28.807 11.433.88 23.236 1.32 35.41 1.32h2v115.1c-.483 62.235-22.85 118.71-67.1 169.426-26.037 29.594-57.238 56.692-93.602 81.297-17.34 11.73-35.127 22.96-53.362 33.687-41.62-24.48-75.962-48.348-103.027-71.6-34.306-29.476-60.703-60.47-79.192-92.986-21.063-38.147-31.678-78.09-31.844-119.823V90.49zm395.853 31.723c-45.543-3.042-85.588-15.555-120.134-37.538-19.41-12.136-39.964-18.29-61.656-18.46-22.268.336-42.883 6.504-61.846 18.505-34.986 22.14-74.968 34.638-119.943 37.493v83.378c.503 52.105 19.71 100.752 57.625 145.94 23.374 27.61 50.16 51.976 80.356 73.1 14.573 10.192 29.175 19.54 43.81 28.044 50.572-29.387 91.96-63.103 124.165-101.146 38.16-45.865 57.37-94.51 57.624-145.938v-83.378z"/></svg>