<svg viewBox="0 0 512 512" xmlns="http://www.w3.org/2000/svg"><path d="M352 57.504L374.512 80l-63.52 64L368 201.025l64-63.52L454.48 160l-63.488 64 36.544 36.464-23.04 23.04-12-12-82 82c-19.392 19.393-51.104 19.393-70.496 0l-29.504-29.472L91.52 443.552l-23.04-23.04L188 301.52l-29.504-29.504c-19.392-19.39-19.392-51.103 0-70.496l81.984-81.983-12-12 23.04-23.04L288 121.01zm-89.008 84.48v.03l-81.984 82c-6.208 6.21-6.208 19.297 0 25.505l81.488 81.504c6.208 6.19 19.296 6.19 25.504 0l82-82.032z"/></svg>