<svg viewBox="0 0 512 512" xmlns="http://www.w3.org/2000/svg"><path d="M224 64c61.664 0 112 50.336 112 112 0 38.56-19.68 72.848-49.504 92.992 7.777 3.328 15.424 7.056 22.496 11.49C330.08 265.2 356.048 256 384 256c70.496 0 128 57.504 128 128 0 70.496-57.504 128-128 128s-128-57.504-128-128c0-30.368 10.72-58.528 28.48-80.48C266.464 293.728 246.017 288 224 288c-70.88 0-128 57.12-128 128H64c0-65.92 40.432-122.512 97.504-146.992C131.68 248.832 112 214.56 112 176c0-61.664 50.336-112 112-112zm0 32c-44.368 0-80 35.632-80 80s35.632 80 80 80 80-35.632 80-80-35.632-80-80-80zm160 192c-53.216 0-96 42.784-96 96s42.784 96 96 96 96-42.784 96-96-42.784-96-96-96zm-36.48 36.48v.048l36.48 36.48 36.48-36.528 22.992 23.04-36.48 36.48 36.528 36.48-23.04 22.99L384 406.993l-36.48 36.527-22.99-23.04L361.007 384l-36.527-36.48z"/></svg>