<svg viewBox="0 0 512 512" xmlns="http://www.w3.org/2000/svg"><path d="M327.52 41.008l-.016.017 12 11.47 120 120 10.993 11.52-11.008 11.52c-20.274 20.273-48.69 28.29-76.482 24.96L326 277.52c10.033 41.392.53 87.456-33.007 120.96L281.503 410l-11.006-11.488-67.49-67.52L70.498 464H48v-22.51l133.024-132.48-69.01-69.01-11.518-10.975 11.52-11.52c30.448-30.448 72.96-41.536 112.48-34.496L289.502 118c1.824-23.31 9.777-46.59 26.496-64.99zM331.008 90h-.016c-6.32 11.472-11.007 23.632-11.007 36.48v6.528l-4.48 4.48-74 74.016-6.53 6.496-8.48-2.48c-26.207-6.88-54.222.48-77.503 16.48l131.023 131.024c18.544-26 22.897-57.81 13.504-86l-3.008-9.488 7.007-7.04 66.976-66.992 6.496-6.497 9.008 2.48c14.544 3.648 28.8-1.023 42-8.48z"/></svg>