<svg viewBox="0 0 512 512" xmlns="http://www.w3.org/2000/svg"><path d="M340.614 242.624c30.833 0 55.1 13.184 71.44 29.524 16.357 16.358 29.524 40.583 29.524 71.44 0 30.832-13.184 55.098-29.524 71.438-16.358 16.358-40.583 29.525-71.44 29.525-30.832 0-55.098-13.183-71.44-29.524-16.356-16.357-29.523-40.583-29.523-71.438 0-30.833 13.185-55.1 29.525-71.44 16.358-16.357 40.583-29.524 71.44-29.524zm-58.636 65.256c-5.763 9.352-10.05 21.612-10.05 35.708 0 20.902 9.01 37.562 20.068 48.62 11.067 11.067 27.7 20.067 48.62 20.067 14.08 0 26.367-4.296 35.707-10.05zm117.274 71.415c5.762-9.352 10.05-21.612 10.05-35.707 0-20.887-9.237-37.35-20.288-48.4-11.063-11.062-27.498-20.29-48.4-20.29-14.08 0-26.368 4.298-35.707 10.052zm-185.876 32.98c4.952 0 8.79-1.67 12.55-3.117 5.755 9.48 12.203 17.694 19.498 25.652-9.53 5.876-20.154 9.74-32.048 9.74-17.872 0-31.903-7.66-41.397-17.153-9.216-9.215-16.586-22.476-17.123-39.397H70v-32.275h28.275V216.35c0-35.24 14.707-62.366 33.72-81.38 19.04-19.038 46.107-33.722 81.38-33.722 35.053 0 62.925 15.044 81.49 33.61 18.585 18.584 33.612 46.414 33.612 81.49v2h-32.275v-2c0-25.224-10.888-45.18-24.266-58.56-13.39-13.39-33.316-24.265-58.56-24.265-25.435 0-45.1 10.806-58.56 24.266-13.39 13.39-24.265 33.314-24.265 58.56v139.375h78.468c1.1 12.104 3.7 22.44 7.19 32.275h-29.04c.762 11.033 7.646 18.616 15.96 22.23 3.124 1.36 6.524 2.045 10.248 2.045z"/></svg>