<svg viewBox="0 0 512 512" xmlns="http://www.w3.org/2000/svg"><path d="M456 48.146V448H56.146V48.146H456zm-32.275 367.58V80.42H88.422v335.303h335.303zm-167.652-24.277c-43.79 0-78.296-18.708-101.48-41.895-23.21-23.208-41.896-57.657-41.896-101.48 0-43.792 18.707-78.297 41.895-101.482 23.208-23.21 57.657-41.895 101.48-41.895 43.792 0 78.297 18.707 101.482 41.895 23.21 23.208 41.895 57.657 41.895 101.48-.002 43.792-18.71 78.297-41.896 101.482-23.208 23.21-57.657 41.894-101.48 41.894zm0-254.477c-33.845 0-60.545 14.763-78.44 32.66-17.916 17.913-32.66 44.57-32.66 78.44 0 33.845 14.762 60.545 32.66 78.442 17.913 17.914 44.57 32.66 78.44 32.66 33.845 0 60.545-14.764 78.44-32.66 17.915-17.914 32.66-44.57 32.66-78.44 0-33.846-14.762-60.546-32.66-78.443-17.913-17.914-44.57-32.66-78.44-32.66zm0 141.376c-14.042 0-23.561-8.45-27.9-18.436-1.588-3.65-2.375-7.613-2.375-11.84 0-14.042 8.45-23.562 18.434-27.902 3.65-1.587 7.613-2.374 11.84-2.374 14.043 0 23.562 8.45 27.902 18.435 1.587 3.65 2.374 7.613 2.374 11.84 0 14.043-8.45 23.562-18.434 27.902-3.65 1.587-7.613 2.374-11.84 2.374z"/></svg>