<svg viewBox="0 0 512 512" xmlns="http://www.w3.org/2000/svg"><path d="M240 64h32v32.496c44.32 3.232 80 40.384 80 85.504v26h-32v-26c0-27.856-20.96-50.512-48-53.488v112.48L297.504 246C338.192 253.39 368 288.655 368 330c0 47.183-38.832 86-86 86h-10v32h-32v-32h-10c-47.184 0-86-38.8-86-86v-26h32v26c0 29.904 24.08 54 54 54h10V268l-9.504-2C189.824 258.608 160 223.343 160 182c0-45.104 35.68-82.273 80-85.52V64zm0 64.48v.016c-27.04 2.992-48 25.647-48 53.52 0 26.08 18.336 47.84 44 52.48l4 .51V128.48zM272 274v110h10c29.888 0 54-24.08 54-54 0-26.08-18.32-47.84-44-52.48z"/></svg>