<svg viewBox="0 0 512 512" xmlns="http://www.w3.org/2000/svg"><path d="M256 64c69.376 0 128 49.44 128 112 0 45.04-24.384 72.24-45.504 90-10.56 8.88-20.48 16.273-26.496 22.48-6.016 6.24-8 10.08-8 15.52v16h-96v-16c0-40.065 25.072-64.224 45.504-81.504 10.208-8.64 19.52-16.16 25.488-23.488C284.96 191.68 288 185.28 288 176c0-2.624-1.472-5.824-6.992-9.504C275.472 162.832 266.432 160 256 160c-10.368 0-19.44 2.816-24.992 6.496C225.44 170.208 224 173.648 224 176v48h-96v-48c0-63.103 58.72-112 128-112zm0 32c-54.448 0-96 37.056-96 80v16h32v-16c0-15.328 9.2-28.128 20.992-36 11.808-7.872 26.848-12 43.008-12 16.096 0 31.168 4.16 42.992 12C310.848 147.84 320 160.64 320 176c0 17.296-6.976 31.904-16 42.992-9.024 11.104-19.712 19.728-29.504 28-14.752 12.48-24.464 24.848-29.504 41.008H276c3.152-8.256 7.44-15.744 12.992-21.504 8.992-9.312 19.073-17.056 28.512-24.992C336.384 225.6 352 210.32 352 176c0-42.16-41.664-80-96-80zm-48 256h96v96h-96v-96zm32 32v32h32v-32h-32z"/></svg>