<svg viewBox="0 0 512 512" xmlns="http://www.w3.org/2000/svg"><path d="M270 34.726c44.19 0 81.16 12.63 110.505 29.954 32.247 19.034 59.58 46.368 78.614 78.614 17.34 29.377 29.953 66.275 29.953 110.505 0 44.19-12.63 81.16-29.954 110.504-19.035 32.248-46.37 59.58-78.615 78.615-29.377 17.34-66.274 29.953-110.505 29.953-44.19 0-81.16-12.63-110.505-29.954-32.247-19.036-59.58-46.37-78.614-78.616C63.54 334.927 50.928 298.03 50.928 253.8c0-44.19 12.63-81.16 29.954-110.506 19.035-32.247 46.37-59.58 78.615-78.614C188.872 47.338 225.77 34.726 270 34.726zm0 407.163c38.074 0 69.705-10.85 94.987-25.716 27.76-16.32 51.068-39.63 67.388-67.388 14.88-25.31 25.715-56.88 25.715-94.987 0-38.075-10.85-69.706-25.715-94.988-16.32-27.76-39.63-51.068-67.388-67.388-25.31-14.88-56.88-25.715-94.987-25.715-38.074 0-69.705 10.85-94.987 25.714-27.76 16.32-51.068 39.63-67.388 67.388-14.88 25.31-25.715 56.878-25.715 94.987 0 38.073 10.85 69.704 25.715 94.986 16.32 27.76 39.63 51.068 67.388 67.388 25.31 14.88 56.88 25.715 94.987 25.715zm0-36.878c-33.65 0-60.408-14.444-78.23-32.266-17.84-17.842-32.266-44.556-32.266-78.23v-1.92h220.992v1.92c0 33.65-14.442 60.407-32.266 78.23-17.842 17.84-44.555 32.266-78.23 32.266zm0-30.985c18.746 0 34.183-6.357 45.868-14.6 12.255-8.644 22.17-20.912 28.115-35.847H196.016c8.91 22.377 26.266 38.96 49.664 46.62 7.794 2.552 15.894 3.827 24.32 3.827zm52.37-194.875c0-12.254 10.022-22.278 22.276-22.278 9.927 0 17.138 6.262 20.4 13.192 1.25 2.653 1.88 5.487 1.88 8.45v55.35c0 10.19-6.49 16.98-13.785 20.107-2.704 1.16-5.55 1.745-8.494 1.745-12.253 0-22.277-10.022-22.277-22.277v-54.288zm-149.295 0c0-12.254 10.023-22.278 22.278-22.278 9.926 0 17.138 6.262 20.4 13.192 1.25 2.653 1.878 5.487 1.878 8.45v55.35c0 10.19-6.488 16.98-13.783 20.107-2.704 1.16-5.55 1.745-8.494 1.745-12.253 0-22.278-10.022-22.278-22.277v-54.288z"/></svg>