<svg viewBox="0 0 512 512" xmlns="http://www.w3.org/2000/svg"><path d="M367.196 114.144c-59.487-48.52-145.943-53.818-212.023-7.55-79.778 55.863-99.082 165.343-43.22 245.12 55.86 79.78 165.34 99.084 245.12 43.223 70.535-49.39 93.798-140.694 59.632-216.326L361.88 217l-18.354-26.214 57.338-40.15 25.397-17.78.818-.573c65.077 93.882 42.023 223.275-51.65 288.867-93.95 65.782-223.906 42.867-289.688-51.08-65.783-93.948-42.868-223.905 51.08-289.687 79.843-55.907 185.696-47.75 256.06 13.63zM208.553 248.527v-.095l.017-.092c.783-4.132 1.155-11.558 3.333-17.444 5.466-12.35 13.78-20.704 25.227-25.575 5.917-2.517 11.89-3.753 17.986-3.753 21.72 0 36.657 13.115 43.263 28.26 2.61 5.987 3.89 12.027 3.89 18.29l-.017.092c-.783 4.13-1.155 11.556-3.333 17.442-5.467 12.35-13.78 20.704-25.227 25.575-5.917 2.518-11.89 3.754-17.987 3.754-21.72 0-36.656-13.114-43.262-28.26-2.612-5.986-3.89-12.026-3.89-18.193zm127.116-1.005c0-10.547-2.195-20.845-6.537-30.81-8.476-19.452-23.3-33.87-43.935-42.948-9.5-4.18-20.486-5.725-30.087-5.743-.23.05-22.055 2.615-31.228 6.52-19.603 8.34-33.983 23.125-42.8 43.79-4.236 9.926-5.93 20.843-5.93 30.696 0 10.547 2.196 20.845 6.538 30.808 8.512 19.538 23.127 34.544 44.045 43 9.775 3.95 19.656 5.863 29.476 5.863 10.71 0 21.36-2.275 31.73-6.688 19.603-8.342 33.983-23.127 42.8-43.79 4.237-9.928 5.93-20.845 5.93-30.698zm65.194-96.885zm26.214-18.355zm-59.882-18.138z"/></svg>