<svg viewBox="0 0 512 512" xmlns="http://www.w3.org/2000/svg"><path d="M358.496 64h-.016l22.512 22.496L307.504 160c-6.96 6.944-7.104 14.992-.512 21.984L392 97.504 414.48 120 330 205.008c7.008 6.592 15.04 6.448 22-.528l73.488-73.472 22.496 22.496-72 72-1.504 2.015c-18.177 18.16-47.97 18.08-66.496.48l-.48-.48h-.512l-28 28.48 18.512 18.96L443.52 420.448l-23.04 23.04L285.97 308.975l-28.48 28.513-11.008 11.487-11.488-11.487-19.008-18.496-124.48 124.512-22.992-23.04 124.48-124.48L92.48 195.505c-28.32-28.35-28.32-74.687 0-103.04L104 81.473l11.52 11.01 120 120L256 232.96l28.48-27.937c-18.433-18.48-18.433-49.072 0-67.52zM108.48 131.52l-.017-.016c-5.183 14.145-4.832 29.12 7.04 40.96l130.992 131.04 17.024-17.007z"/></svg>