<svg viewBox="0 0 512 512" xmlns="http://www.w3.org/2000/svg"><path d="M325.593 149.11c0-21.594-9.844-36.865-21.6-48.1l22.45-23.207c17.237 16.698 31.425 39.65 31.425 71.307 0 31.654-14.2 54.62-31.425 71.307l-22.45-23.206c11.76-11.236 21.6-26.515 21.6-48.1zm88.825 0c0 36.498-11.767 64.807-27.193 87.068-6.292 9.078-13.522 17.25-21.468 24.88l-22.44-23.196c21.438-20.66 38.827-49.532 38.827-88.752 0-39.205-17.407-68.108-38.826-88.752l22.44-23.194c21.416 20.56 38.464 46.748 45.527 81.057 2.09 10.148 3.133 20.446 3.133 30.89zm-259.36 0c0-31.653 14.2-54.62 31.426-71.307l22.45 23.207c-11.76 11.237-21.6 26.515-21.6 48.1 0 21.594 9.843 36.867 21.6 48.1l-22.45 23.208c-17.238-16.7-31.426-39.65-31.426-71.308zm-56.55 0c0-36.497 11.766-64.808 27.194-87.067 6.29-9.078 13.522-17.25 21.468-24.88l22.437 23.195c-21.436 20.66-38.825 49.533-38.825 88.752 0 39.207 17.406 68.108 38.825 88.752l-22.437 23.195c-21.418-20.562-38.466-46.747-45.53-81.058-2.088-10.148-3.132-20.446-3.132-30.89zm129.55 34.05c-8.813-7.248-16.008-19.077-16.008-34.05 0-20.63 12.32-34.62 27.06-40.937 5.408-2.32 11.208-3.475 17.353-3.475 20.63 0 34.622 12.318 40.94 27.06 2.317 5.407 3.473 11.207 3.473 17.352 0 14.96-7.205 26.81-16.007 34.05L373 448h-33.812l-18.998-56.55H192.737L173.74 448h-33.814zm40.543-34.05c0-6.495-5.642-12.138-12.137-12.138s-12.137 5.644-12.137 12.138c0 6.495 5.643 12.138 12.137 12.138 6.495 0 12.138-5.644 12.138-12.138zM281.3 274.35l-24.835-74.307-24.835 74.306h49.67zm-77.94 84.825h106.21l-17.653-52.55H221.01z"/></svg>