<svg viewBox="0 0 512 512" xmlns="http://www.w3.org/2000/svg"><path d="M448.554 223.654c0 47.16-16.576 85.9-38.02 114.705-23.077 30.994-56.803 56.47-97.7 68.887v31.64h81.43v30.985h-275.28v-30.984h81.432v-31.64c-41.098-12.39-74.573-37.825-97.7-68.89-21.47-28.837-38.02-67.498-38.02-114.704 0-38.836 11.065-71.12 26.24-96.93 16.65-28.32 40.44-52.108 68.76-68.757 25.838-15.193 58.056-26.242 96.93-26.242 38.835 0 71.118 11.066 96.928 26.242 28.32 16.65 52.11 40.44 68.758 68.757 15.192 25.84 26.242 58.06 26.242 96.93zM256.624 62.71c-32.532 0-59.546 9.336-81.207 22.005-35.033 20.488-61.907 53.182-73.977 96.198-3.673 13.09-5.59 26.693-5.75 40.82h64.027c.52-28.668 12.914-51.25 28.325-66.66 15.703-15.703 38.96-28.343 68.582-28.343 29.6 0 52.895 12.656 68.582 28.342 15.426 15.427 27.804 37.972 28.325 66.662h64.03c-.36-31.702-9.535-57.978-21.996-79.287-20.487-35.032-53.184-61.907-96.198-73.977-13.683-3.84-27.926-5.76-42.742-5.76zm65.94 160.944c0-20.064-8.652-36.062-19.265-46.675-10.626-10.625-26.595-19.265-46.676-19.265-20.067 0-36.062 8.65-46.676 19.264-10.623 10.623-19.266 26.595-19.266 46.674 0 20.065 8.654 36.062 19.266 46.676 10.625 10.625 26.594 19.265 46.676 19.265 20.066 0 36.06-8.65 46.675-19.265 10.622-10.625 19.265-26.595 19.265-46.676zM256.625 384.6c28.565 0 53.132-7.475 73.144-17.608 33.38-16.902 59.454-44.612 74.597-79.735 4.736-10.983 8.233-22.492 10.493-34.538h-65.816c-9.12 30.587-32.092 52.694-61.685 62.774-9.95 3.39-20.202 5.086-30.733 5.086-23.794 0-43.37-8.488-57.97-19.247-15.494-11.416-28.36-28.2-34.448-48.614h-65.84c7.196 40.53 28.306 71.6 54.424 93.847 17.933 15.277 39.86 26.962 65.705 33.425 12.286 3.07 24.992 4.607 38.13 4.607zm0 30.984c-8.526 0-16.936-.543-25.225-1.628v24.933h50.45v-24.934c-8.29 1.085-16.7 1.628-25.226 1.628z"/></svg>