<svg viewBox="0 0 512 512" xmlns="http://www.w3.org/2000/svg"><path d="M441.352 75.542c9.94 0 19.514 4.021 26.903 11.4 7.464 7.47 11.187 17.266 11.187 27.054 0 9.126-3.237 18.26-9.723 25.507v.413c-45.165 44.376-90.092 88.99-135.403 133.22-1.628 8.512-5.6 17.07-12.3 23.748-14.106 14.108-41.756 34.11-83.54 34.11h-28.02l15.195-23.733c10.92-16.628 14.18-29.442 18.053-45.113 2.472-10 4.937-20.47 13.167-29.44 6.177-6.725 13.952-10.935 22.084-12.75 45.244-44.154 90.09-88.704 135.186-133.007 4.893-4.893 10.844-8.282 17.165-10.028l-1.256-1.38h11.303zm8.064 38.465c0-3.62-4.577-8.28-8.055-8.28-1.707 0-3.844.79-5.758 2.697l-89.223 87.688 11.473 11.482 88.953-88.017c1.93-1.934 2.61-3.85 2.61-5.57zM336 229l-11.502-11.483-8.216 8.04 11.5 11.496zm-30.603 35.223c0-8.67-8.36-14.84-16.64-14.84-3.83 0-7.16 1.298-9.468 3.826-1.016 1.106-4.087 9.69-7.513 22.565-1.623 6.135-3.878 13.122-6.865 20.624 16.76-5.024 28.55-13.895 35.636-20.982 3.324-3.322 4.85-7.376 4.85-11.195zM432 206v146H68V128h274.184l-.653-32H36v288h198v32h-70v32h172v-32h-70v-32h198V206h-32zm0 0zm-89.816-78z"/></svg>