<svg viewBox="0 0 512 512" xmlns="http://www.w3.org/2000/svg"><path d="M42.21 265.417c.738-82.123 36.706-143.873 107.903-185.25 32.975-19.163 68.528-28.7 106.66-28.613 38.145.088 73.682 9.816 106.61 29.186 32.93 19.37 58.944 45.485 78.043 78.346 19.1 32.862 28.606 68.473 28.52 106.834-.087 38.36-9.784 73.95-29.09 106.77-19.306 32.82-45.39 58.78-78.252 77.88-32.862 19.098-68.473 28.605-106.833 28.518-38.36-.086-73.95-9.782-106.77-29.09s-58.78-45.39-77.88-78.25c-19.098-32.863-28.735-68.306-28.91-106.332zm305.726 156.878c60.138-36.192 90.113-88.65 89.927-157.378-.087-32.32-10.564-66.12-31.43-101.405-20.865-35.284-54.827-59.728-101.885-73.332-49-13.265-95.102-7.186-138.304 18.24-61.226 36.03-91.745 88.596-91.558 157.69.187 69.096 30.514 121.19 90.98 156.28 60.467 35.09 121.224 35.06 182.27-.095zm-73.82-197.428l81.783-81.785 22.708 22.71-81.784 81.784c7.47 18.57 6.7 32.446-2.307 41.624-24.98 25.456-48.214 28.014-69.7 7.673-8.38-9.248-12.512-19.897-12.39-31.944.19-18.943 9.022-32.426 26.493-40.452 12.1-4.57 23.832-4.44 35.195.39zm-17.843 28.412c-7.498 1.16-11.105 5.35-10.82 12.562.283 7.214 4.033 10.68 11.247 10.396 7.214-.284 10.68-4.033 10.395-11.247-.284-7.213-3.89-11.117-10.822-11.71zm142.373-54.12c18.98 41.638 19.967 83.817 2.957 126.54-8.416 19.904-20.19 37.422-35.32 52.553l-22.93-22.93c41.64-41.64 50.315-89.32 26.024-143.043zm-89.235-46.846c-53.478-24.18-100.76-15.94-141.843 24.714-24.09 25.243-36.065 55.046-35.926 89.408.14 34.362 12.66 63.99 37.555 88.887l-22.93 22.93c-31.396-31.396-47.033-68.912-46.91-112.548s12.727-77.97 37.815-102.997c56.95-56.813 118.737-70.034 185.36-39.663z"/></svg>