<svg viewBox="0 0 512 512" xmlns="http://www.w3.org/2000/svg"><path d="M199.138 366.9c-12.373-.5-22.858-4.818-31.456-12.957-4.062-4.48-7.222-9.182-9.482-14.102-2.19-5.797-3.348-11.582-3.474-17.353V68.01c.5-12.374 4.817-22.86 12.956-31.457 4.48-4.06 9.182-7.222 14.102-9.48 5.798-2.192 11.583-3.35 17.354-3.476H312.24c12.373.5 22.858 4.817 31.456 12.956 4.06 4.482 7.222 9.183 9.48 14.103 2.192 5.798 3.35 11.583 3.476 17.353v254.477c-.5 12.373-4.817 22.86-12.956 31.456-4.48 4.062-9.183 7.222-14.103 9.482-5.797 2.19-11.583 3.348-17.353 3.474H199.138zm0-311.028C191.64 57.032 187.594 61.08 187 68.01v254.478c1.16 7.498 5.207 11.544 12.138 12.136H312.24c7.498-1.16 11.544-5.207 12.138-12.136V68.01c-1.16-7.498-5.207-11.544-12.138-12.138H199.138zm170.8 310.554c7.3-13.236 11.29-30.882 11.97-52.94.24-7.862-.085-28.425-.98-61.687v-2h32.275v81.965c-.523 25.352-9.48 46.956-26.873 64.812-18.554 17.65-40.157 26.608-64.813 26.873h-49.69v24.275h56.55V480H183.002v-32.275h56.55V423.45h-49.69c-25.352-.522-46.955-9.48-64.812-26.873-17.65-18.554-26.608-40.157-26.873-64.812V249.8h32.276v2l-1.265 47.007c0 15.308 1.038 29.237 3.115 41.787 1.927 9.91 4.974 18.52 9.14 25.832 4.99 7.535 11.05 13.52 18.174 17.955 8.282 4.384 18.364 6.648 30.247 6.795h131.657c12.55-.29 22.633-2.556 30.247-6.794 7.798-5.1 13.857-11.084 18.174-17.954z"/></svg>