<svg viewBox="0 0 512.0001 512" xmlns="http://www.w3.org/2000/svg"><path d="M256 80c54.048 0 98.24 34.128 117.504 80.992 56.432 2.912 101.28 47.776 104.992 104C498.32 282.624 512 307.84 512 336c0 53.184-42.816 96-96 96H96c-53.184 0-96-42.816-96-96 0-44.032 30.144-79.136 69.504-90.48 9.552-27.2 32.784-46.72 61.488-51.52C138.24 130.08 190.08 80 256 80zm0 32c-53.92 0-96 42.08-96 96v16h-16c-23.103 0-42.208 15.408-47.008 36.992l-2 10.512-10.51 2C55.2 278.592 32 303.68 32 336c0 36.416 27.584 64 64 64h320c36.416 0 64-27.584 64-64 0-20.272-10.4-39.68-25.504-50.992L448 280v-8c0-44.08-35.92-80-80-80h-16.48L348 180.48C335.52 140.32 300.192 112 256 112zm-16 80h32v105.008l36.48-36.527 23.04 23.04-64 64L256 358.512l-11.52-10.976-64-64 23.04-23.04L240 297.008V192z"/></svg>