<svg viewBox="0 0 512 512" xmlns="http://www.w3.org/2000/svg"><path d="M50.498 97.378h1.92c25.428 0 47.418-1.966 65.97-5.894 21.84-4.96 42.128-13.354 60.865-25.184 12.484-7.867 24.844-13.68 37.078-17.44 18.864-5.795 39.034-7.253 60.512-4.374 13.244 2.07 24.417 5.318 33.52 9.747 9.1 4.43 17.706 9.17 25.813 14.224 25.103 15.646 54.908 24.863 89.413 27.654 10.975.846 22.306 1.268 33.994 1.268h1.92v110.497c-.464 59.745-21.937 113.96-64.416 162.647-24.996 28.41-54.95 54.425-89.86 78.046-16.644 11.26-33.72 22.042-51.226 32.34-39.954-23.503-72.924-46.415-98.906-68.738-32.934-28.296-58.276-58.052-76.025-89.265-20.223-36.62-30.413-74.965-30.572-115.03V97.378zm380.02 30.454c-43.72-2.92-82.163-14.933-115.327-36.036-18.634-11.65-38.365-17.558-59.19-17.722-21.376.322-41.167 6.244-59.372 17.765-33.586 21.255-71.968 33.252-115.146 35.992v80.043c.483 50.02 18.922 96.72 55.32 140.1 22.438 26.508 48.152 49.9 77.14 70.178 13.99 9.785 28.008 18.76 42.058 26.924 48.55-28.213 88.282-60.58 119.198-97.1 36.635-44.03 55.074-90.73 55.32-140.102v-80.043zM255.25 168.62c-16.91 0-30.432 13.52-30.432 30.432 0 16.91 13.522 30.43 30.433 30.43 16.91 0 30.434-13.52 30.434-30.43S272.16 168.62 255.25 168.62zm0-29.453c32.988 0 59.886 26.898 59.886 59.885 0 16.472-6.702 31.46-17.523 42.32 23.93 14.43 40.102 40.618 40.102 70.576v7.2h-29.453v-7.2c0-29.378-23.633-53.012-53.01-53.012-29.38 0-53.012 23.634-53.012 53.012v7.2h-29.454v-7.2c0-29.96 16.175-56.14 40.105-70.57-10.82-10.863-17.524-25.852-17.524-42.326 0-32.987 26.897-59.885 59.885-59.885z"/></svg>