<svg viewBox="0 0 512 512" xmlns="http://www.w3.org/2000/svg"><path d="M256 63.52l.016.017c16.864 0 33.888 8.24 44 24l50 80.96 22.992-13.504V240l-74.032-41.488 24-14.015-50-80c-8.464-13.168-24.832-12.88-33.472 0l-44.992 73.488-27.52-16.48L212 87.52c10.112-15.76 27.136-24 44-24zm-89.504 129.984h-.016v84.992L142 263.52l-42 68v.48l-.48.48C88.863 348 99.726 368 120 368h88v32h-88c-43.392 0-70.528-49.344-47.008-85.024.19-.256-.192-.688 0-.96l.512.48 40.992-67.488-20-12zm234.496 56.992v.016l40 64v.48C462.752 352 435.696 400 393.504 400H304v32l-78.496-48.016 78.496-48v32h89.504c18.608 0 30.24-19.088 20-36.48l-40-64z"/></svg>