<svg viewBox="0 0 512 512" xmlns="http://www.w3.org/2000/svg"><path d="M170 230h240v32H170v-32zm-96 0v32h32v-32H74zm-32-32h96v96H42v-96zm128-96h240v32H170v-32zm-96 0v32h32v-32H74zM42 70h96v96H42V70zm32 288v32h32v-32H74zm-32-32h96v96H42v-96zm353.137 16.776c-8.38-17.007-21.706-25.715-39.976-26.123-6.158.378-12.04 1.595-17.65 3.65-17.006 8.38-25.714 21.707-26.122 39.975.378 6.16 1.595 12.042 3.65 17.65 8.38 17.007 21.707 25.716 39.975 26.124 6.16-.377 12.042-1.594 17.65-3.65 17.007-8.38 25.716-21.706 26.124-39.976-.377-6.16-1.594-12.042-3.65-17.65zm-39.932-53.643c11.972.508 22.695 3.094 32.172 7.757 25.53 13.945 38.51 35.1 38.93 63.463v.128c-.64 14.246-4.724 27.32-12.256 39.224l60.583 60.56L455 479.9l-60.524-60.54c-12.125 7.547-25.186 11.617-39.182 12.21h-.325c-11.977-.508-22.7-3.092-32.173-7.753-16.36-8.937-27.567-20.835-33.617-35.694L170 388v-30h113.987c.72-11.075 3.266-21.054 7.638-29.938 13.944-25.53 35.1-38.507 63.462-38.93h.118z"/></svg>