<svg viewBox="0 0 512 512" xmlns="http://www.w3.org/2000/svg"><path d="M344 40h32v22.496c13.28 2.336 25.376 7.584 36 15.008l14.992-15.008 22.512 22.496L434.496 100c7.424 10.624 12.672 22.72 15.008 36H472v32h-22.48c-2.368 13.392-7.488 25.792-15.008 36.512l15.52 16.48-23.52 22.016-14.976-16c-10.512 7.2-22.496 12.192-35.52 14.496V264h-32v-22.48c-13.28-2.336-25.376-7.585-36-15.008l-16.48 17.024-23.04-23.04 17.008-16.48c-7.424-10.624-12.672-22.72-15.008-36H248v-32h22.496c2.304-13.024 7.312-25.008 14.512-35.52l-16-14.992 22-23.52 16.512 15.52c10.672-7.536 23.088-12.64 36.48-15.008V40zm16 53.008v-.016c-32.88 0-59.008 26.128-59.008 59.008S327.12 211.008 360 211.008 419.008 184.88 419.008 152 392.88 93.008 360 93.008zm-207.52 94.48l.03-.017 11.522 28.96c8.48-2.11 17.376-3.486 26.496-3.486 9.135 0 18.03 1.36 26.51 3.472l11.473-28.96 29.522 12-11.52 28.96c15.104 9.135 27.87 21.952 37.024 37.024l28.96-11.52 12 29.52-29.008 11.488c2.128 8.463 3.52 17.392 3.52 26.512 0 9.104-1.41 18.016-3.49 26.495l28.962 11.52-12 29.49-28.96-11.49c-9.104 15.233-21.89 28.257-37.024 37.505l11.52 28.48-29.488 12-11.52-28.48c-8.45 2.128-17.377 3.488-26.497 3.488-9.167 0-17.966-1.345-26.495-3.488l-11.52 28.48-29.52-12 11.52-28.48c-15.36-9.233-28.223-22.16-37.503-37.52l-28.48 11.52-12-29.49 28.48-11.518c-2.128-8.48-3.488-17.376-3.488-26.496s1.36-18.048 3.488-26.496l-28.48-11.49 12-29.518 28.48 11.52c9.248-15.104 22.27-27.904 37.504-37.024l-11.49-28.96zm38.016 57.472c-42.592 0-76.992 33.904-76.992 76.512 0 42.593 34.384 76.992 76.992 76.992 42.607 0 76.512-34.384 76.48-76.992 0-42.592-33.873-76.512-76.48-76.512z"/></svg>