<svg viewBox="0 0 512 512" xmlns="http://www.w3.org/2000/svg"><path d="M197.008 72.48h-.048L215.52 118c12.8-3.76 26.48-6 40.48-6 14.016 0 27.68 2.24 40.464 6.032l18.496-45.52 29.49 12-18.514 45.984c23.264 13.055 42.48 32.27 55.52 55.52l46.016-18.48 12 29.488-45.504 18.527c3.76 12.8 6 26.482 6 40.482s-2.24 27.68-6 40.48l45.52 18.495-12 29.49-45.984-18.513c-13.056 23.264-32.27 42.48-55.52 55.52l18.48 46.015-29.504 12-18.51-45.505c-12.8 3.76-26.482 6-40.482 6-14.032 0-27.68-2.223-40.48-6l-18.512 45.52-29.472-12 18.512-45.984c-23.152-13.087-42.512-32.318-55.52-55.518l-46.015 18.48-12-29.505L118 296.48c-3.76-12.8-6-26.48-6-40.48 0-14.016 2.24-27.68 6-40.512l-45.52-18.513 12-29.472 45.984 18.512c13.056-23.264 32.273-42.48 55.52-55.52l-18.48-46.015zM256 144c-62.048 0-112 49.952-112 112s49.952 112 112 112 112-49.952 112-112-49.952-112-112-112zm0 48c35.152 0 64 28.848 64 64s-28.848 64-64 64-64-28.848-64-64 28.848-64 64-64zm0 32c-17.856 0-32 14.144-32 32s14.144 32 32 32 32-14.144 32-32-14.144-32-32-32z"/></svg>