<svg viewBox="0 0 512 512" xmlns="http://www.w3.org/2000/svg"><path d="M256 64c26 0 44.667 11.667 56 35 4.667 8.667 7.333 17.667 8 27 44 18.667 73.333 50.667 88 96 5.333 16.667 8 33.333 8 50v8c20.667 13.333 31.333 32 32 56 0 26-11.667 45-35 57-9.333 4.667-19 7-29 7-9.333 0-18-2-26-6-30 25.333-64 38-102 38-38.667-.667-72.667-13.333-102-38-8 4-16.667 6-26 6-26 0-45-11.667-57-35-4.667-9.333-7-19-7-29 .667-24 11.333-42.333 32-55v-9c0-52 20.333-93.667 61-125 11.333-8.667 23-15.667 35-21 1.333-26 13.667-44.667 37-56 8.667-4 17.667-6 27-6zm0 32c-16 0-26.333 7.333-31 22-.667 4-1 7.333-1 10 0 16 7.333 26.333 22 31 4 .667 7.333 1 10 1 16 0 26.333-7.333 31-22 .667-4 1-7.333 1-10 0-16-7.333-26.333-22-31-4-.667-7.333-1-10-1zm-56 62c-38 18-61 47.333-69 88-2 9.333-3 18-3 26 26 0 45 11.667 57 35 4.667 9.333 7 19 7 29-.667 14-5 26.667-13 38 23.333 17.333 49 26 77 26 28.667-.667 54.333-9.333 77-26-8.667-12-13-24.667-13-38 0-26 11.667-45 35-57 9.333-4.667 19-7 29-7 0-44-17.667-78.667-53-104-6.667-4-13-7.333-19-10-12.667 22-31.333 33.333-56 34-25.333-.667-44-12-56-34zm-72 146c-16 0-26.333 7.333-31 22-.667 4-1 7.333-1 10 0 16 7.333 26.333 22 31 4 .667 7.333 1 10 1 16 0 26.333-7.333 31-22 .667-4 1-7.333 1-10 0-16-7.333-26.333-22-31-4-.667-7.333-1-10-1zm256 0c-16 0-26.333 7.333-31 22-.667 4-1 7.333-1 10 0 16 7.333 26.333 22 31 4 .667 7.333 1 10 1 16 0 26.333-7.333 31-22 .667-4 1-7.333 1-10 0-16-7.333-26.333-22-31-4-.667-7.333-1-10-1z"/></svg>