<svg viewBox="0 0 512 512" xmlns="http://www.w3.org/2000/svg"><path d="M427.303 358.725V391H314.17c-.536 16.91-7.915 30.19-17.122 39.398-9.504 9.502-23.51 17.153-41.397 17.153-17.872 0-31.9-7.66-41.395-17.153-9.217-9.216-16.586-22.475-17.123-39.397H84v-32.275h28.275v-167.65c0-28.843 8.367-53.14 19.602-72.36 18.233-31.196 47.38-55.117 85.68-65.862 12.255-3.438 24.957-5.155 38.095-5.155 28.842 0 53.137 8.367 72.357 19.6 31.194 18.234 55.12 47.38 65.862 85.682 3.438 12.255 5.155 24.957 5.155 38.094v167.65h28.276zm-282.752 0h222.202v-167.65c0-33.847-14.763-60.545-32.66-78.442-17.913-17.914-44.57-32.66-78.44-32.66-33.846 0-60.546 14.764-78.442 32.66-17.914 17.914-32.66 44.57-32.66 78.44v167.652zm111.1 56.55c12.253 0 20.454-7.335 24.232-16.026 1.112-2.558 1.773-5.3 1.976-8.25h-52.414c.76 11.033 7.644 18.617 15.958 22.23 3.125 1.36 6.525 2.045 10.25 2.045z"/></svg>