<svg viewBox="0 0 512 512" xmlns="http://www.w3.org/2000/svg"><path d="M209.008 64l.048-.032c18.768 0 31.633 8 46.992 8 7.664 0 15.393-1.6 22.992-3.52 7.616-1.888 14.672-4.48 24-4.48 13.777 0 25.936 6.88 34.512 16 8.56 9.152 14.56 20.592 20 32.992 8.4 19.264 15.024 41.136 20.992 61.984 17.376 5.088 32.128 11.376 44 19.008 13.905 8.928 25.49 21.28 25.49 38 0 14.53-8.833 26.113-20 34.496-9.49 7.136-21.186 13.056-34.994 17.984-.8 3.728-2.032 7.488-3.52 11.04 13.505 7.616 34.88 22.336 55.52 50.496l9.49 13.536-13.505 9.488-52.53 36 9.97 20L409.984 448h-308l11.52-22.976 9.984-20-52.482-36-13.504-9.488 9.504-13.504c20.64-28.144 42-42.864 55.488-50.496-1.47-3.52-2.72-7.296-3.488-11.04-13.824-4.944-25.52-10.864-35.008-18-11.152-8.384-20-19.968-20-34.496 0-16.689 11.632-29.072 25.52-38 11.84-7.632 26.608-13.935 44-18.992 5.44-20.144 11.456-41.648 20-61.008 5.52-12.56 11.84-24.208 20.48-33.52C182.657 71.2 195.025 64 209.008 64zm0 32h.065c-3.52 0-6.77 1.392-11.52 6.512-4.736 5.088-9.81 13.808-14.497 24.48-7.84 17.76-14.24 40.272-20 61.52l.002.24c0 .066 0 .174-.002.24-.095 2.063-.985 5.2-1.984 7.008-.142.144-.378.374-.528.512 0 .16.065.32 0 .48l.002.264c0 .073 0 .19-.002.263.288.064.752-.192 2 .48 4.096 2.192 12.32 4.928 22.496 6.48 20.368 3.2 48.113 3.52 70.992 3.52 22.993 0 50.672.048 70.993-2.992 10.16-1.52 18.51-4.336 22.51-6.528 2.353-1.248 1.49-.512 1.49-.48-7.168-24.96-13.81-52.112-22.53-72-4.575-10.512-9.95-19.152-14.495-24s-7.31-6-10.992-6c-1.392 0-7.712 1.408-16 3.52C278.72 101.6 268 104 256 104c-24.015 0-43.712-8-46.992-8zm-78.016 113.504h.016c-10.112 3.648-18.705 7.76-24.512 11.488C97.248 226.96 96 230.944 96 232c0 .96.8 4 7.504 9.04 6.64 5.025 18.16 10.8 32.96 15.488 29.6 9.44 72.32 15.52 119.52 15.52s89.873-6.08 119.52-15.52c14.77-4.704 26.29-10.48 32.96-15.488 6.673-5.024 7.52-8.064 7.52-9.024 0-1.04-1.76-5.504-11.04-11.52-5.79-3.728-14.08-7.472-24-10.992-3.567 7.616-9.92 13.937-16.48 17.504-9.76 5.312-20.895 7.68-32.96 9.473-24.223 3.632-52.528 3.52-75.52 3.52-23.136 0-51.36-.256-75.52-4-12.063-1.872-23.28-4.304-32.96-9.504-6.528-3.488-12.895-9.47-16.51-16.992zm41.504 87.52l.032-.032 1.488 10c5.28 26.416 16.832 50.368 31.52 67.008 14.656 16.656 31.68 25.727 50.496 26 18.32.272 35.712-8.69 50.48-25.49 14.816-16.798 26.59-41.23 31.52-67.518l1.52-10c-5.28.88-10.48 2.303-16 3.008-2.08 14.032-13.024 26.43-30.496 27.52-13.472.8-28.672-5.568-29.984-23.52-2.4.032-4.64 0-7.04 0-2.4 0-4.608.032-7.008 0-1.328 17.952-16.528 24.32-29.968 23.52-17.504-1.09-28.48-13.488-30.56-27.52-5.504-.705-10.72-2.128-16-2.976zM368 319.968v.017c-.544.303-.96.67-1.504.99-6.56 28.273-18.4 54.513-36 74.513-6.848 7.76-14.656 14.832-22.976 20.48h50.464l-4.48-9.008-6.016-12.48 11.52-7.52 48.51-33.488c-17.92-19.744-33.566-30.016-39.518-33.504zm-224.48.48l.05.016c-6.673 4.016-22.08 14.32-39.04 33.007l48.51 33.49 11.457 7.52-6 12.48-4.512 9.008h52c-8.912-5.808-17.28-12.848-24.48-21.008-17.36-19.68-29.153-45.57-36-73.49-.657-.35-1.377-.638-1.985-1.022z"/></svg>