<svg viewBox="0 0 512 512" xmlns="http://www.w3.org/2000/svg"><path d="M345.984 41h32v22.496c13.28 2.336 25.376 7.584 36 15.008l14.992-15.008 22.512 22.496L436.48 101c7.424 10.624 12.672 22.72 15.008 36h22.496v32h-22.48c-2.368 13.392-7.488 25.792-15.008 36.512l15.52 16.48-23.52 22.016-14.976-16c-10.512 7.2-22.496 12.192-35.52 14.496V265h-32v-22.48c-13.28-2.336-25.376-7.585-36-15.008l-16.48 17.024-23.04-23.04 17.008-16.48c-7.424-10.624-12.672-22.72-15.008-36h-22.496v-32h22.496c2.304-13.024 7.312-25.008 14.512-35.52l-16-14.992 22-23.52 16.512 15.52c10.672-7.536 23.088-12.64 36.48-15.008V41zm16 53.008v-.016c-32.88 0-59.008 26.128-59.008 59.008s26.128 59.008 59.008 59.008S420.992 185.88 420.992 153s-26.128-58.992-59.008-58.992zM80 135h141v34l-109-2zm281-8.175c14.398 0 26.215 11.816 26.215 26.215 0 14.397-11.817 26.215-26.215 26.215s-26.215-11.818-26.215-26.215c0-14.4 11.817-26.215 26.215-26.215zM112 167v176h288l-1-74 33 27.692v55.332l36.48 36.96c7.264 7.264 11.52 17.28 11.52 27.52C480 437.64 462.624 455 441.504 455H70.496C49.36 455 32 437.64 32 416.52c0-10.24 4.256-20.272 11.52-27.52L80 352.008v-217.01.002zm-9.008 208h.016L66 411.496c-1.233 1.248-2 3.248-2 5.008 0 3.84 2.656 6.496 6.496 6.496h371.008c3.84 0 6.496-2.656 6.496-6.496 0-1.76-.768-3.744-2-5.024L408.992 375h-306z"/></svg>