<svg viewBox="0 0 512 512" xmlns="http://www.w3.org/2000/svg"><path d="M64 64h288v96h96v288H160v-96H64V64zm32 32v224h72.992L320 169.008V96H96zm80 32h32v16h48v32h-16.992c-1.68 18.432-6.32 35.44-15.008 50v30c-9.152 0-17.616-1.056-26-2.496C179.968 265.52 156.352 272 128 272v-32c10.464 0 19.616-.832 27.52-2.48-15.776-10.592-27.52-26.432-27.52-45.504h31.984c0 6.72 4.256 13.792 15.52 20.48 4.048 2.416 9.024 4.72 14.496 6.512 9.296-10.144 14.928-24.608 17.008-43.008H128v-32h48v-16zm167.008 64L192 342.992V416h224V192h-72.992zM320 221.504v.016l14.992 45.472 32 96 1.008 2.512V384h-32v-14l-.48-2h-31.04l-.48 2v14h-32v-18.496l.992-2.496 32-96zm0 100.48V322l-4.48 14h8.96z"/></svg>