<svg viewBox="0 0 512 512" xmlns="http://www.w3.org/2000/svg"><path d="M145.205 180.205zM118.4 153.4zM224 416v-32h64v32h-64zm189 20L60 88l26-24 50.443 50.153c22.837-34.724 60.59-56.1 103.077-64.65.16-.032.32 0 .48 0 5.376-.656 10.72-.96 16-1.023 78.944-.736 144 64.48 144 143.52 0 43.28-20 80.96-46.496 107.488-5.215 5.222-10.116 10.574-14.36 16.202l97.864 97.302zM296.747 332.26c-1.956 6.415-3.393 13.01-4.283 19.74H222.48c-3.52-27.424-15.28-53.968-37.505-73.008C157.32 255.3 140.265 223.928 145 184l-27-26c-1.944 6.69-3.032 8.963-4 15.984-7.168 52 14.272 99.152 50 129.52 15.296 13.088 24.752 30.608 28 48.48v96h36.48c5.568 9.552 15.728 16 27.52 16s21.952-6.448 27.52-16H320v-64l1.504-19.008c.226-2.857.185-5.79.548-8.677zM159.58 137.158l157.11 156.207c4.415-5.815 9.365-11.293 14.814-16.374l-.512-.51C352.482 255.007 368 225.503 368 192c0-61.76-50.16-112.385-112-111.52l-.032.015c-4.128.064-8.288.48-12.48 1.024-35.46 4.6-66.44 25.512-83.908 55.638z"/></svg>