<svg viewBox="0 0 512 512" xmlns="http://www.w3.org/2000/svg"><path d="M256 202.516c-29.818 0-54.327 18.294-64.47 44.298l-1.66 4.257-21.983-8.94 1.61-4.13c13.532-34.684 46.782-59.28 86.503-59.28 23.742 0 45.598 8.98 62.085 23.815v-16.417h23.797v60.79h-60.788V223.11h23.835c-12.485-12.642-29.86-20.594-48.93-20.594zm65.58 91.803h3.966l18.566 7.55-1.61 4.13c-13.532 34.684-46.78 59.28-86.502 59.28-23.984 0-45.672-9.18-62.086-23.882v16.485h-23.797v-60.79h60.79v23.797h-24c12.517 12.562 29.84 20.594 49.093 20.594 29.817 0 54.326-18.295 64.463-44.297zM184 96h144l4.992 6.496L352 128h112v288H48V128h112l18.992-25.504zm16 32l-18.992 25.504L176 160H80v224h352V160h-96l-4.992-6.496L312 128H200zm-72 48c8.832 0 16 7.168 16 16s-7.168 16-16 16-16-7.168-16-16 7.168-16 16-16z"/></svg>