<svg viewBox="0 0 512 512" xmlns="http://www.w3.org/2000/svg" fill="#fff"><path d="M159.09 413.41c-22.004-15.407-41.052-35.727-55.332-60.46-38.1-65.993-31.985-145.54 9.063-204.16 40.196-57.407 101.484-80.732 155.537-80.653l29.913.05c-4.97 8.645-9.94 17.29-14.912 25.935-27.604 47.975-27.628 107.467-.086 155.17 11.424 19.79 26.98 36.49 45.208 49.253 25.733 18.02 56.842 28.224 89.222 28.273 9.985.01 19.967.022 29.95.033-7.68 13.33-14.714 26.915-24.032 40.223-15.854 22.643-36.462 41.596-60.37 55.4-65.99 38.1-145.538 31.985-204.16-9.062zm-17.888-244.718c-33.575 47.95-38.558 113-7.432 166.917 11.684 20.235 27.257 36.837 45.223 49.417 61.005 42.717 152.154 38.546 207.26-26.224-28.107-4.754-54.626-15.748-77.665-31.878-22.316-15.628-41.337-36.055-55.328-60.29-28.444-49.265-32.883-108.684-13.33-161.27-17.34 3.177-34.028 9.283-49.308 18.105-20.236 11.684-36.84 27.256-49.42 45.223z"/></svg>