<svg viewBox="0 0 512 512" xmlns="http://www.w3.org/2000/svg" fill="#fff"><path d="M109.008 38.496h-.016L142.496 72 120 94.496 86.48 60.992zm294 0h-.016l22.512 22.512L392 94.496 369.49 72zM256 48.48c78.944-.736 144 64.48 144 143.52 0 43.28-20 80.96-46.496 107.488-19.808 18.384-32 42.03-32 65.487v19.01H320v64h-36.48c-5.568 9.55-15.728 16-27.52 16s-21.952-6.45-27.52-16H192v-96c-3.248-17.873-12.704-35.394-28-48.48-35.727-30.37-57.168-77.52-50-129.52 8.976-64.61 60.624-117.04 125.52-124.48.16-.034.32 0 .48 0 5.376-.658 10.72-.96 16-1.025zm0 32l-.032.016c-4.128.063-8.288.48-12.48 1.023-50.112 5.552-91.007 46.08-98 96.48-5.63 40.832 11.216 76.992 39.488 100.992C207.2 298.032 218.96 324.576 222.48 352h69.984c3.792-28.672 17.52-54.945 39.04-75.008l-.512-.512C352.482 255.007 368 225.503 368 192c0-61.76-50.16-112.385-112-111.52zM32 192h48v32H32v-32zm400 0h48v32h-48v-32zM120 321.504L142.48 344l-33.472 33.504-22.512-22.512zm272 0l33.504 33.488-22.512 22.512L369.504 344zM224 384v32h64v-32h-64z"/></svg>