<svg viewBox="0 0 512 512" xmlns="http://www.w3.org/2000/svg" fill="#fff"><path d="M256.064 359.428l50.145-50.144 22.708 22.71-50.145 50.144 50.145 50.143-22.71 22.71-50.144-50.143-50.145 50.143-22.71-22.71 50.145-50.142-50.144-50.145 22.71-22.71zm214.065-102.53H272.2v48.31l-16.138 16.137-16.137-16.136v-48.312H42V113.522c.256-4.513 1.047-8.46 2.374-11.84 1.97-3.825 4.136-7.013 6.496-9.565 3.214-2.81 6.4-4.974 9.564-6.495 4.043-1.46 7.99-2.252 11.84-2.374h367.58c4.512.256 8.458 1.047 11.84 2.374 3.824 1.97 7.012 4.136 9.564 6.495 2.81 3.214 4.975 6.4 6.496 9.564 1.46 4.044 2.252 7.99 2.374 11.842v143.376zm-32.276-32.274V115.522H74.276v109.102h363.578zm-24.276-68.688c-1.177 10.11-6.557 15.49-16.138 16.138-4.55-.53-8.334-2.124-11.354-4.784-2.924-3.657-4.52-7.44-4.783-11.354 1.176-10.11 6.556-15.49 16.137-16.138 4.55.53 8.334 2.124 11.355 4.784 2.924 3.657 4.518 7.44 4.783 11.354zM332.993 366H470.13v32.274H332.992l-16.138-16.136zm-153.857 32.274H42V366h137.136l16.138 16.138z"/></svg>