<svg viewBox="0 0 512 512" xmlns="http://www.w3.org/2000/svg" fill="#fff"><path d="M227.935 276.99V151.622h29.745V264.47l75.07 75.274-20.926 20.926zm-74.488-99.31v29.745H45.527V99.505H75.27v50.56c3.41-5.787 7.665-12.08 12.766-18.878 27.306-35.445 61.743-60.023 103.308-73.734 21.02-6.615 42.517-9.97 64.493-10.064 28.612.244 55.93 5.722 81.95 16.432 25.248 11.067 47.496 26.127 66.746 45.18 19.47 19.864 34.53 42.117 45.187 66.76 10.83 26.625 16.305 53.937 16.427 81.937-.245 28.612-5.722 55.93-16.433 81.95-11.067 25.247-26.127 47.496-45.18 66.746-19.865 19.47-42.118 34.53-66.762 45.186-26.624 10.83-53.935 16.306-81.935 16.428-24.1-.207-47.09-4.17-68.97-11.89-43.74-15.43-78.802-42.34-105.19-80.732-13.058-19.58-22.67-40.712-28.83-63.398l28.586-7.904c10.953 39.702 32.68 72.136 65.18 97.3 32.713 24.383 69.12 36.677 109.225 36.88 32.853-.32 63.18-8.55 90.984-24.686 27.302-16.506 48.934-38.138 64.896-64.896 16.298-28.42 24.526-58.75 24.686-90.984-.32-32.854-8.55-63.182-24.686-90.986-16.505-27.302-38.138-48.932-64.896-64.895-28.422-16.297-58.75-24.526-90.984-24.687-34.99.348-67.198 9.753-96.63 28.216-28.613 18.688-50.322 42.8-65.128 72.33h59.368z"/></svg>