<svg viewBox="0 0 512 512" xmlns="http://www.w3.org/2000/svg"><path d="M355.96 203.616c-7.837-9.075-14.31-22.645-14.31-38.368 0-17.555 7.948-31.97 17.265-41.287 9.404-9.403 23.524-17.263 41.286-17.263 17.557 0 31.97 7.945 41.287 17.264 9.328 9.33 17.265 23.718 17.265 41.288 0 15.715-6.487 29.313-14.32 38.38 18.664 11.094 32.95 28.853 39.427 51.755 2.11 7.465 3.166 15.126 3.166 22.965v2h-32.274v-2c0-16.35-7.447-29.812-16.093-38.458-8.655-8.655-22.096-16.092-38.46-16.092-16.563 0-29.727 7.362-38.457 16.092-8.654 8.655-16.093 22.096-16.093 38.458 0 29.58-15.055 53.844-32.76 67.94 26.736 14.46 47.336 38.375 56.538 69.893 3 10.27 4.498 20.882 4.498 31.82v2H341.65v-2c0-25.1-11.103-45.178-24.375-58.45-13.286-13.285-33.333-24.376-58.45-24.376-25.098 0-45.177 11.105-58.45 24.376C187.09 402.836 176 422.882 176 448v2h-32.275v-2c0-24.347 7.38-44.617 17.31-60.587 10.572-17 25.73-31.392 43.726-41.126-17.726-14.11-32.76-38.336-32.76-67.94 0-16.348-7.447-29.81-16.093-38.457-8.654-8.654-22.095-16.092-38.458-16.092-16.565 0-29.73 7.362-38.46 16.092-8.653 8.655-16.092 22.095-16.092 38.458v2H30.624v-2c0-27.523 11.877-47.913 26.22-62.06 4.973-4.908 10.435-9.13 16.374-12.66-7.843-9.078-14.32-22.65-14.32-38.38 0-17.556 7.948-31.97 17.265-41.287 9.404-9.402 23.523-17.263 41.286-17.263 17.553 0 31.967 7.946 41.285 17.264C168.063 133.29 176 147.68 176 165.25c0 15.71-6.483 29.305-14.31 38.368 10.532 6.177 19.37 14.32 26.466 24.38 14.208-19.69 39.073-36.473 70.67-36.473 31.572 0 56.476 16.805 70.668 36.473 7.097-10.06 15.935-18.203 26.467-24.38zM91.175 165.248c0 12.25 7.336 20.453 16.026 24.23 3.125 1.36 6.526 2.045 10.25 2.045 12.25 0 20.45-7.335 24.23-16.026 1.36-3.125 2.045-6.525 2.045-10.25 0-12.25-7.336-20.452-16.027-24.23-3.125-1.36-6.525-2.044-10.25-2.044-12.25 0-20.452 7.335-24.23 16.026-1.36 3.123-2.044 6.523-2.044 10.248zm167.65 167.65c16.35 0 29.813-7.446 38.46-16.092 8.737-8.738 16.092-21.882 16.092-38.458 0-16.35-7.447-29.812-16.093-38.458-8.654-8.654-22.096-16.093-38.458-16.093-16.564 0-29.728 7.363-38.458 16.093-8.654 8.655-16.093 22.096-16.093 38.458 0 16.565 7.363 29.73 16.093 38.458 8.738 8.74 21.882 16.093 38.458 16.093zm115.102-167.65c0 12.25 7.336 20.453 16.026 24.23 3.125 1.36 6.526 2.045 10.25 2.045 12.25 0 20.452-7.335 24.23-16.026 1.36-3.125 2.045-6.525 2.045-10.25 0-12.25-7.336-20.452-16.027-24.23-3.125-1.36-6.525-2.044-10.25-2.044-12.25 0-20.452 7.335-24.23 16.026-1.358 3.123-2.044 6.523-2.044 10.248z"/></svg>