<svg viewBox="0 0 512 512" xmlns="http://www.w3.org/2000/svg" fill="#fff"><path d="M240.64 56.32H256v30.72h-15.36V56.32zm-33.117 6.728l.046-.016 8.6 29.26-11.98 3.38-.952.492-10.568 3.84-.952.46h-.508l-12.947-27.847 1.413-.49.507-.462h.46l12.95-4.792.505-.03.462-.46zM317.44 71.68h122.88v30.72h-56.156c43.945 36.634 71.515 91.24 71.515 153.6 0 109.748-89.933 199.68-199.68 199.68S56.32 365.75 56.32 256v-15.36h30.72V256c0 93.006 75.954 168.96 168.96 168.96S424.96 349.007 424.96 256c0-60.518-30.26-111.205-76.8-141.618v80.178h-30.72V71.68zM150.876 87.04h-.015l16.36 25.912-7.22 4.808-.968.462-8.647 6.757-.92.46-3.38 2.887-20.153-23.04 4.3-3.84h.492l.46-.49 10.6-8.172h.46l.49-.46zm-47.032 39.844l.015.015 23.5 20.152-3.378 3.84-.46.492-6.714 9.093-.983.952-4.3 7.218-25.928-16.82 5.283-8.14.49-.506v-.462l8.143-10.552.49-.49.462-.492zM71.22 179.2l27.785 12.979v.46l-.46.953-3.84 10.567-.46.968-3.38 11.98-29.276-8.14 3.378-12.964.46-.983v-.46l4.823-12.472v-.507l.463-.46z"/></svg>