<svg viewBox="0 0 512 512" xmlns="http://www.w3.org/2000/svg" fill="#fff"><path d="M255.862 153.973c28 .52 51.815 10.36 71.44 29.523 19.42 20.322 29.26 44.135 29.523 71.44-.52 28-10.36 51.814-29.524 71.44-20.32 19.42-44.133 29.26-71.438 29.523-28-.52-51.815-10.362-71.44-29.525-19.42-20.32-29.26-44.134-29.523-71.44.52-28 10.36-51.814 29.522-71.44 20.322-19.42 44.135-29.26 71.44-29.522zm0 169.65c18.945-.514 35.078-7.203 48.398-20.067 13.262-14.154 20.026-30.36 20.29-48.62-.52-18.808-7.284-34.94-20.29-48.4-14.143-13.262-30.276-20.025-48.398-20.29-18.952.524-35.158 7.287-48.62 20.29-13.118 14.007-19.808 30.14-20.07 48.4.517 19.088 7.207 35.295 20.07 48.62 14.015 13.117 30.223 19.806 48.62 20.068zM272 129.698h-32.275V40.87H272v88.827zm-32.275 250.477H272V469h-32.275v-88.826zm230.202-141.376v32.275H381.1v-32.275h88.827zm-339.303 32.275H41.798v-32.275h88.826v32.275zm25.168-93.273l-62.687-62.918L115.81 92.18l62.917 62.685zm200.14 154.27l62.687 62.92-22.704 22.702-62.918-62.686zm0-154.27L333 154.865l62.918-62.686 22.704 22.702zm-200.14 154.27l22.935 22.936-62.918 62.686-22.705-22.703z"/></svg>