<svg viewBox="0 0 512 512" xmlns="http://www.w3.org/2000/svg" fill="#fff"><path d="M195.59 385.5h-29.122c-1.306-36.887-11.57-64.477-35.333-88.24-23.753-23.754-51.364-34.028-88.24-35.333v-29.12c44.88 1.57 79.553 14.57 108.84 43.853 29.275 29.277 42.282 63.97 43.854 108.84zm-45.57 0h-29.104c-1.03-23.882-6.917-40.79-22.074-55.948-15.146-15.148-32.077-21.043-55.947-22.073v-29.106c31.893 1.203 55.864 9.754 76.62 30.507 20.74 20.744 29.304 44.74 30.506 76.62zm-82.29 0c-13.86-.232-24.605-11.08-24.835-25.003.23-13.896 11.115-24.744 25.003-24.977 13.994.23 24.746 11.17 24.976 25.145-.23 14.034-11.22 24.604-25.145 24.834zM248 96h222v288H228.47l-.653-32H438V128H74v75H42V96h206zM74 203zm153.816 149z"/></svg>