<svg viewBox="0 0 512 512" xmlns="http://www.w3.org/2000/svg" fill="#fff"><path d="M138.496 48h-.016c8.4 0 16.672 3.04 23.52 8.48l.992.528.527.48 64 66.016 1.488 1.488-.48.512c14.16 13.216 13.952 35.52.48 48.992l-31.968 32c4.895 11.264 18.304 40.016 44.48 65.023 26.352 25.168 53.92 39.456 65.488 45.008l31.52-31.52.48-.512c13.28-13.28 36.72-13.28 50 0l.51 1.008 64.994 64.992c13.28 13.28 13.28 36.224 0 49.504l-49.537 49.488-.51.512-.48.48c-15.01 12.864-36.05 17.488-55.52 11.008h-.48c-37.553-14.72-113.505-48-181.505-116-67.728-67.744-102.448-142.656-116-181.504-.032-.096.032-.4 0-.48-6.704-18.432-1.904-39.744 13.504-54.016l-.48-.48 50-51.52.51-.48.96-.528c6.882-5.44 15.154-8.48 23.522-8.48zm0 32h-.016c-1.168 0-2.32.576-3.472 1.504l-48.512 49.488-.512.528-.48.48c-5.68 4.848-7.44 14.496-4.992 21.008 12.128 34.832 45.2 106.672 108.48 169.984 62.8 62.767 133.23 93.76 169.52 108 9.328 3.103 17.12 1.824 24.48-4.512L432 377.47c2.72-2.718 2.72-1.76 0-4.478l-65.52-65.49c-2.72-2.718-2.24-2.718-4.96.002l-40 40-7.52 7.488-10-4.512s-43.84-18.528-81.024-52.48l-3.472-2.993c-38.607-36.847-57.008-86.015-57.008-86.015l-3.52-9.985 7.52-7.007 40-40c1.952-1.968.88-3.6.992-3.52l-.48-.48-.992-1.008-64-65.49c-1.168-.926-2.336-1.502-3.52-1.502z"/></svg>