<svg viewBox="0 0 512 512" xmlns="http://www.w3.org/2000/svg" fill="#fff"><path d="M96 96h320c26.32 0 48 21.68 48 48v108.48c9.76 8.83 16 21.472 16 35.52v144h-80v-32H112v32H32V288c0-14.048 6.24-26.69 16-35.52V144c0-26.32 21.68-48 48-48zm0 32c-8.88 0-16 7.12-16 16v96h32v-16c0-26.32 21.68-48 48-48h64c12.273 0 23.472 4.8 32 12.48 8.528-7.68 19.727-12.48 32-12.48h64c26.32 0 48 21.68 48 48v16h32v-96c0-8.88-7.12-16-16-16H96zm64 80c-8.88 0-16 7.12-16 16v16h96v-16c0-8.88-7.12-16-16-16h-64zm128 0c-8.88 0-16 7.12-16 16v16h96v-16c0-8.88-7.12-16-16-16h-64zM80 272c-8.88 0-16 7.12-16 16v112h16v-32h352v32h16V288c0-8.88-7.12-16-16-16H80z"/></svg>