<svg viewBox="0 0 512 512" xmlns="http://www.w3.org/2000/svg" fill="#fff"><path d="M64 64h32v80h114.992c6.704-18.496 24.336-40 45.008-40s38.303 21.504 44.992 40H448v32H301.008c-6.704 18.496-24.336 40-45.008 40s-38.303-21.504-44.992-40H96v64h226.992c6.704-18.496 24.336-40 45.008-40s38.304 21.504 44.992 40H448v32h-34.992c-6.704 18.496-24.336 40-45.008 40s-38.304-21.504-44.992-40H96v64h34.992c6.704-18.496 24.336-40 45.008-40s38.303 21.504 44.992 40H448v32H221.008c-6.704 18.496-24.336 40-45.008 40s-38.304-21.504-44.992-40H96v80H64V64zm192 72c-9.024 0-16 14.976-16 24s6.976 24 16 24 16-14.976 16-24-6.976-24-16-24zm112 96c-9.024 0-16 14.976-16 24s6.976 24 16 24 16-14.976 16-24-6.976-24-16-24zm-192 96c-9.024 0-16 14.976-16 24s6.976 24 16 24 16-14.976 16-24-6.976-24-16-24z"/></svg>