<svg viewBox="0 0 512 512" xmlns="http://www.w3.org/2000/svg" fill="#fff"><path d="M368.668 240.427v-28.235h14.158c26.55.268 49.96 10.038 69.912 29.066 18.91 19.38 28.442 42.647 28.442 69.914 0 26.674-9.57 50.092-28.477 69.916-19.264 18.794-42.672 28.5-69.897 29.03h-113.12c-26.55-.268-49.964-10.038-69.913-29.065-18.91-19.383-28.442-42.65-28.442-69.916 0-26.674 9.57-50.09 28.478-69.914 19.264-18.793 42.673-28.5 69.897-29.03h14.138v28.247c-55.948 1.163-83.82 23.506-84.826 70.687.258 18.72 7.11 35.213 20.85 49.82 13.9 13.45 30.397 20.386 49.838 20.896h113.072c18.722-.258 35.215-7.11 49.82-20.852 13.45-13.898 20.387-30.374 20.897-49.812-.51-46.763-28.4-69.208-84.826-70.75zm-28.866-14.117c0-26.776-9.453-50.008-28.49-69.93-19.345-18.887-42.536-28.498-69.92-29.013H128.33c-26.656.26-49.885 9.907-69.948 29.08-18.998 19.457-28.424 42.525-28.424 69.904 0 26.778 9.453 50.008 28.49 69.928 19.345 18.89 42.536 28.5 69.92 29.015h14.1V297.02c-54.88-.4-83.805-24.056-84.827-70.643.273-18.627 7.27-35.347 20.832-49.81 13.8-13.338 30.527-20.39 49.8-20.922H241.43c18.63.27 35.305 7.268 49.767 20.83 13.337 13.802 20.388 30.528 20.92 49.8-.533 46.25-29.465 69.974-84.796 70.745l-.027 28.276h14.137c26.656-.26 49.884-9.91 69.948-29.082 18.998-19.456 28.424-42.523 28.424-69.902z"/></svg>