<svg viewBox="0 0 512 512" xmlns="http://www.w3.org/2000/svg" fill="#fff"><path d="M480 74.496v362.992l-20.48-5.984-208.527-63.52-.48 1.504c-10.448 35.52-48.05 54.32-82.017 44-.128-.048-.32.048-.48 0-35.248-10.624-54.272-48.192-44-81.984v-.512l.48-1.488L93.008 320H32V192h60.992L459.52 80.496zm-32 43.008v-.016l-347.504 106.03-2 .482H64v64h34.512l1.968.48L448 394.496V117.504zM154.992 338.992l-.48 1.52v.48c-5.344 17.136 4.288 36.512 23.007 42 17.12 5.36 36.99-3.792 42.495-22.512V360l.48-1.488z"/></svg>