<svg viewBox="0 0 512 512" xmlns="http://www.w3.org/2000/svg" fill="#fff"><path d="M343.026 280.35H85.213v-32.275h257.813v32.274zM484.402 450H28V334.9c0-14.043 8.45-23.56 18.434-27.902 3.65-1.587 7.613-2.374 11.84-2.374h393.854v-30.34L105.723 100.97l14.627-28.747 347.306 173.653c8.797 4.674 16.748 14.49 16.748 27.172V450zm-32.274-32.275V336.9H60.274v80.825h391.854zM84.55 377.312c0-8.682 7.455-16.137 16.138-16.137 8.682 0 16.137 7.455 16.137 16.137s-7.455 16.138-16.138 16.138c-8.682 0-16.137-7.455-16.137-16.137z"/></svg>