<svg viewBox="0 0 512 512" xmlns="http://www.w3.org/2000/svg" fill="#fff"><path d="M256 124.48l4.992 1.52 200 66.992L506.482 208l-45.474 14.992L416 238v82c0 13.12-8 24-17.504 31.503-9.504 7.49-21.312 12.77-35.488 17.49-28.384 9.47-65.792 15.006-107.008 15.006-41.216 0-78.624-5.552-107.008-14.993-14.176-4.735-25.985-10.015-35.488-17.488C104 344 96 333.12 96 320v-82l-32-10.48v128.96c9.55 5.552 16 15.68 16 27.52 0 17.68-14.32 32-32 32s-32-14.32-32-32c0-11.84 6.448-21.968 16-27.52v-140L5.52 208l45.472-14.993 200-67.007zm0 33.52l-150 50 150 50 150-50zm-128 91.008v-.016V320c0 .16-.08 2 5.008 6 5.056 3.985 14.144 9.04 25.984 12.992C182.72 346.912 217.68 352 256 352c38.32 0 73.28-5.103 96.992-12.992 11.872-3.968 20.944-9.008 26-13.008 5.073-3.984 5.008-5.84 5.008-6v-71.008l-122.992 40.993-5.008 1.52-4.992-1.505z"/></svg>