<svg viewBox="0 0 512 512" xmlns="http://www.w3.org/2000/svg" fill="#fff"><path d="M80 80h127.984v38.496l-4.48 5.024L118.99 208H208v32H80v-38.496l4.48-5.024L169.007 112H80V80zm272 0h32v298.992l41.504-41.488L448 360l-68.48 68.992L368 440l-11.52-10.992L288 360l22.496-22.496L352 379.008V80zM130.992 272h-.032 26.064l3.456 10.496L191.52 368h.48v1.008l14.992 41.488 1.008 2.496V432h-32v-13.504L169.504 400h-51.008L112 418.496V432H80v-18.992l.992-2.512L96 369.008V368h.48l31.024-85.504zM144 330.496L130.496 368h27.008z"/></svg>