<svg viewBox="0 0 512 512" xmlns="http://www.w3.org/2000/svg" fill="#fff"><path d="M272 64h10.016l4.48 9.024 12.512 24.96c20.432 2.24 41.056 9.6 56.512 27.52C373.712 146.656 384 178.816 384 224v14.512c9.12 8.752 16 19.968 16 33.504 0 20.16-14.24 34.464-32 41.503-5.92 18.656-12.864 38.272-20 54.976-7.792 18.272-14.304 32.768-24 43.04-45.92 48.56-122.08 48.56-168 0-9.696-10.272-16.72-24.768-24.48-43.04-7.152-16.704-13.6-36.32-19.52-54.992-17.76-7.04-32-21.344-32-41.504 0-13.6 6.848-24.8 16-33.504V224c0-48.672 13.152-89.792 42.992-118C168.864 77.792 213.344 64 272 64zm-9.504 33.008v-.016c-47.568 1.6-81.008 12.64-101.488 32C138.944 149.824 128 180.848 128 224v29.52l-8 4.48c-4.912 2.832-8 8.016-8 14 0 8.544 6.144 15.312 14.48 15.984l11.008.48 3.008 10.512c5.92 19.232 13.28 39.584 20.48 56.512 7.217 16.912 15.456 31.312 18.016 34 34.048 36 87.92 36 122 0 2.528-2.688 10.8-17.088 18-33.984 7.2-16.912 14.592-37.248 20.512-56.512l2.992-10.51 11.008-.482c8.384-.688 14.496-7.456 14.496-16 0-6.08-3.135-11.183-8-14.015l-8-4.48V224c0-40.288-9.39-64-20.992-77.472-5.647-6.543-12.063-11.04-19.008-14.016.368 2.4.928 4.672 1.008 7.04.32 10.72-4.48 21.648-12 28-15.072 12.64-32.815 11.6-50 12.48-17.2.88-34.8 2.048-45.008 6-10.208 3.953-13.872 6.224-14 22h-32c.208-25.967 16.256-44.928 34.496-52 18.272-7.072 37.856-6.656 54.496-7.52 16.64-.848 30.128-4.32 31.52-5.487.688-.61.576.735.48-2.53-.08-3.247-2.16-10.83-7.488-21.487zM192 256c8.832 0 16 7.168 16 16s-7.168 16-16 16-16-7.168-16-16 7.168-16 16-16zm96 0c8.832 0 16 7.168 16 16s-7.168 16-16 16-16-7.168-16-16 7.168-16 16-16z"/></svg>