<svg viewBox="0 0 512 512" xmlns="http://www.w3.org/2000/svg"><path d="M256 48c114.688 0 208 93.31 208 208s-93.31 208-208 208S48 370.69 48 256c0-114.688 93.31-208 208-208zm-18 33.008v-.016C154.384 89.442 88.544 156.112 80.992 240H96v32H80.992C88.608 356.544 155.456 423.392 240 431.008V416h32v15.008c84.544-7.616 151.392-74.463 159.008-159.008H416v-32h15.008C423.392 155.457 356.544 88.608 272 80.992V96h-32V81.008c-.656.048-1.36-.08-2 0zm115.52 77.488l-59.04 136-136 59.008 59.04-136zM256 232c-12.8 0-24 11.2-24 24s11.2 24 24 24 24-11.2 24-24-11.2-24-24-24z"/></svg>