<svg viewBox="0 0 512 512" xmlns="http://www.w3.org/2000/svg" fill="#fff"><path d="M355.34 117.35c35.682.525 66.122 13.165 91.32 37.917 25.012 25.89 37.535 56.742 37.57 92.557.066 72.454-15.93 120.558-47.99 144.312-29.136 19.38-57.267 13.57-84.394-17.436-15.202-17.37-28.25-26.42-39.14-27.15h-112.59c-11.19 1.018-22.62 8.193-34.287 21.525-15.326 17.514-27.517 28.08-36.573 31.7-25.884 10.344-49.16 1.3-69.827-27.135S28.518 308 28.696 262.026c.18-45.976 12.642-81.56 37.388-106.75 25.606-25.017 56.05-37.66 91.33-37.927h197.925zm0 32.274H157.412c-26.754.522-49.588 10.01-68.5 28.462-18.713 19.618-28.08 44.406-28.103 74.366-.06 78.496 18.003 118.287 54.19 119.373 4.43-1.058 11.612-7.253 21.552-18.586 21.222-24.197 42.14-36.85 62.75-37.963H313.37c19.26 1.273 33.675 6.93 43.244 16.97 9.57 10.04 16.368 17.358 20.396 21.954 13.74 15.676 24.766 20.9 33.078 15.672 8.312-5.228 16.238-12.987 23.776-23.28 7.538-10.29 12.484-26.525 14.84-48.699 4.495-42.3 3.557-70.71-2.81-85.224-18.442-42.03-48.627-63.046-90.554-63.046zM113 230.45v-28.276h32.275v28.275h28.276v32.274h-28.275V291H113v-28.276H84.725V230.45H113zm284.752 88.825c-19.577-1.113-29.24-11.332-28.985-30.655.253-19.325 10.042-28.86 29.365-28.606 19.324.253 28.86 10.042 28.605 29.365-.253 19.324-9.915 29.288-28.985 29.895zm-56.55-56.55c-19.578-1.113-29.24-11.332-28.985-30.655.253-19.324 10.042-28.86 29.365-28.606 19.323.253 28.858 10.042 28.604 29.365-.253 19.324-9.915 29.29-28.985 29.895z"/></svg>