<svg viewBox="0 0 512 512" xmlns="http://www.w3.org/2000/svg" fill="#fff"><path d="M432 60.48V336c0 35.152-28.848 64-64 64s-64-28.848-64-64 28.848-64 64-64c11.712 0 22.512 3.424 32 8.992V163.008l-224 41.985V384c0 35.153-28.848 64-64 64s-64-28.847-64-64 28.848-64 64-64c11.712 0 22.512 3.392 32 9.025V114.512l12.992-2.03 256-48zm-32 38.56l-224 41.984v32l224-41.984v-32zM368 304c-17.856 0-32 14.144-32 32s14.144 32 32 32 32-14.144 32-32-14.144-32-32-32zm-256 48c-17.856 0-32 14.144-32 32s14.144 32 32 32 32-14.144 32-32-14.144-32-32-32z"/></svg>