<svg viewBox="0 0 512 512" xmlns="http://www.w3.org/2000/svg" fill="#fff"><path d="M198.104 160c32.49.496 59.938 11.248 82.343 32.255 22.606 22.573 34.04 49.673 34.304 81.3-.495 32.487-11.247 59.934-32.253 82.342-22.574 22.606-49.673 34.04-81.3 34.304-32.49-.495-59.938-11.247-82.343-32.254-22.606-22.573-34.04-49.673-34.305-81.3.495-32.49 11.247-59.936 32.254-82.34 22.573-22.608 49.673-34.042 81.3-34.306zm84.373 116.646c-.477-23.614-8.102-43.48-22.87-59.596-16.27-16.254-35.74-24.512-58.41-24.775-23.612.477-43.478 8.1-59.596 22.87-16.253 16.27-24.512 35.738-24.774 58.41.477 23.613 8.1 43.478 22.87 59.595 16.264 16.258 35.734 24.517 58.41 24.775 23.61-.477 43.477-8.1 59.596-22.87 16.257-16.265 24.516-35.735 24.775-58.41zm113.1-100.508c1.177-10.11 6.557-15.49 16.138-16.138 4.55.53 8.334 2.124 11.354 4.784 2.923 3.656 4.518 7.44 4.782 11.354-1.176 10.11-6.556 15.49-16.137 16.138-4.55-.53-8.334-2.124-11.355-4.784-2.924-3.657-4.518-7.44-4.783-11.354zm30.276-72.69c16.216.51 30.015 6.23 41.397 17.154 11.175 12.05 16.893 25.85 17.153 41.398v226.2c-.51 16.217-6.228 30.016-17.154 41.398-12.05 11.176-25.85 16.894-41.397 17.154H86.55c-16.216-.51-30.015-6.228-41.396-17.154C33.978 417.548 28.26 403.748 28 388.2V162c.51-16.216 6.228-30.016 17.154-41.398 12.05-11.176 25.848-16.893 41.396-17.153h339.303zM452.128 162c-.252-3.956-.934-7.373-2.044-10.25-1.77-3.365-3.654-6.14-5.654-8.327-2.86-2.456-5.636-4.34-8.328-5.654-3.55-1.245-6.966-1.925-10.25-2.045H86.55c-3.956.252-7.372.933-10.25 2.044-3.366 1.768-6.14 3.653-8.327 5.653-2.457 2.86-4.34 5.636-5.655 8.328-1.243 3.55-1.924 6.966-2.044 10.25v226.2c.252 3.957.934 7.374 2.044 10.25 1.77 3.366 3.654 6.142 5.654 8.328 2.86 2.456 5.636 4.34 8.33 5.654 3.548 1.244 6.964 1.924 10.248 2.044h339.303c3.956-.252 7.372-.933 10.25-2.044 3.365-1.77 6.14-3.654 8.327-5.654 2.456-2.86 4.34-5.636 5.654-8.328 1.243-3.55 1.924-6.965 2.044-10.25V162z"/></svg>