<svg viewBox="0 0 512 512" xmlns="http://www.w3.org/2000/svg" fill="#fff"><path d="M302.496 65.504c12.896.016 25.311 4.8 35.008 14.496l96 96c19.392 19.392 18.768 51.728-1.504 72L246.496 433.504l-.48.512v.48c-20.576 18.272-52.112 18.4-71.52-.992l-96-96h-.512l-.48-.512c-18.272-20.544-18.4-52.095.992-71.488l187.008-185.52.512-.48v-.512c10.24-9.136 23.6-13.52 36.48-13.488zm-.48 32.48h-.03c-4.882.03-9.953 1.15-14 4.512l-.482.48-81.007 80.528 122.496 122.48 80.51-80.48c8.545-8.545 7.698-20.8 1.505-27.01l-96.032-96c-3.07-3.103-7.872-4.51-12.96-4.51zM183.504 206.496h.016L101.008 288c-5.984 5.984-6.56 18.72 0 26.992.24.304.256.72.512 1.008l95.472 95.008c6.08 6.08 18.736 6.848 27.008 0l.48-.512 81.505-81.504z"/></svg>