<svg viewBox="0 0 512 512" xmlns="http://www.w3.org/2000/svg" fill="#fff"><path d="M456 22.598V479H100.56c-12.373-.5-22.858-4.817-31.456-12.956-4.062-4.48-7.223-9.183-9.482-14.103-2.19-5.797-3.35-11.582-3.475-17.352V81.148c.56-15.255 6.534-28.797 17.927-40.624 12.496-11.664 26.037-17.64 40.624-17.926H456zM88.422 434.588c1.16 7.498 5.207 11.544 12.138 12.138h323.165V422.45H100.56c-7.5 1.16-11.544 5.207-12.138 12.138zm335.303-44.413V54.872H114.698c-10.29.966-18.272 6.635-23.945 17.007-1.407 3.433-2.183 6.523-2.33 9.267V391.9c4.454-1.062 8.5-1.638 12.137-1.725h323.165zM322.343 365.9c-30.26-.492-62.11-11.91-95.55-34.25-32.054-22.042-58.782-48.88-80.18-80.513-22.36-34.01-33.666-65.49-33.916-94.442.24-15.085 3.125-27.64 8.66-37.665 3.27-5.284 7.047-10.2 11.327-14.752s8.942-9.355 13.987-14.415c4-3.446 7.994-6.082 11.986-7.908 4.83-1.75 9.542-2.685 14.138-2.808 5.26.255 9.972 1.192 14.14 2.808 4.646 2.277 8.762 5.132 12.346 8.564 3.584 3.43 7.62 7.11 12.107 11.036 10.39 9.09 18.03 17.948 22.92 26.573 2.725 5.7 4.167 11.392 4.327 17.08-.236 5.05-1.023 9.356-2.362 12.916-3.17 6.742-7.033 12.271-11.59 16.59-4.554 4.316-8.244 7.884-11.07 10.703l-1.388 3.64c5.52 8.17 27.375 30.774 65.56 67.81 4.17 4.037 7.05 6.844 8.64 8.42 1.378.625 2.454 1.02 3.227 1.18 1.544-.518 2.742-1.03 3.594-1.536 2.576-2.33 6.148-6.017 10.718-11.06 9.008-9 18.817-13.637 29.427-13.91 6.346.326 12.038 1.77 17.078 4.328 9.086 5.32 18.148 13.167 27.186 23.543 4.13 4.737 7.813 8.748 11.048 12.034 6.9 7.744 10.482 16.39 10.747 25.933-.255 5.26-1.19 9.973-2.807 14.14-2.263 4.65-4.904 8.65-7.92 11.996-12.105 12.296-21.74 20.65-28.912 25.065-10.584 5.803-23.073 8.768-37.467 8.895zm-149.55-254.477c-1.477.508-2.553.976-3.224 1.402l-10.928 10.857c-3.07 3.05-5.568 5.922-7.493 8.616-3.99 6.714-6.048 14.773-6.177 24.177.524 24.504 10.49 50.777 29.902 78.82 19.566 27.38 42.81 50.37 69.734 68.966 28.853 19.31 54.764 29.1 77.733 29.364 5.83-.14 10.545-.668 14.145-1.58 3.923-1.346 7.26-2.908 10.006-4.688 3.36-2.558 6.513-5.35 9.463-8.376 2.95-3.027 6.135-6.257 9.554-9.692l1.55-3.44c-4.047-6.656-11.96-15.303-23.734-25.942-5.454-4.704-8.78-7.255-9.98-7.655-2.17.792-4.09 1.965-5.756 3.52-7.96 8.72-14.85 14.922-20.67 18.6-5.293 2.76-11.05 4.218-17.27 4.376-5.25-.245-9.954-1.14-14.112-2.684-4.677-2.226-8.69-4.913-12.043-8.063L190.6 215.1c-7.04-7.796-10.698-16.514-10.97-26.155.343-6.886 1.845-12.618 4.507-17.194 4.4-6.51 10.63-13.425 18.692-20.745 2.008-2.288 3.184-4.194 3.528-5.72-2.48-4.204-6.46-9.098-11.943-14.682-10.025-10.213-17.232-16.608-21.62-19.183z"/></svg>