<svg viewBox="0 0 512 512" xmlns="http://www.w3.org/2000/svg" fill="#fff"><path d="M256 48c114.688 0 208 93.31 208 208s-93.31 208-208 208S48 370.69 48 256c0-114.688 93.31-208 208-208zm0 32c-9.568 0-18.848 1.056-28 2.496l28 20 28-20C274.8 81.008 265.632 80 256 80zm-67.008 13.504l.032-.016c-26.05 10.72-49.024 27.36-67.01 48.48l22.482 68 3.52 10.992-9.505 6.528-57.486 42c2.144 28.416 10.48 54.976 24.48 78.016h83.52l3.472 11.008 22 68.48C227.806 430.208 241.68 432 256 432c13.76 0 27.168-1.52 40-4.48l22.48-69.536 3.488-11.008h84.512c13.76-22.896 22.367-49.296 24.512-77.488l-58-42.496-9.488-6.528 3.488-10.992 22-68.512c-17.84-20.608-40.4-36.88-66-47.488l-57.488 42.016L256 142.48l-9.504-6.976zm67.008 68l.032.032 9.504 6.976 72.992 53.008 9.024 6.976-3.52 11.04-28 85.488-3.52 11.008H199.536l-3.52-11.008-28-85.472-3.52-11.04 9.007-6.992 72.993-53.024zm156 12.992l-11.008 34.016 28.512 20.48c-2.992-19.392-8.752-37.744-17.504-54.496zm-312.48 1.008l-.016-.016c-8.48 16.464-14.08 34.464-17.008 53.504l28-20.528zM256 201.488v.03l-54 38.962L222.48 304h67.04L310 240.48zm89.504 177.504v-.016l-11.008 34.512c17.728-8.848 33.36-20.464 47.008-34.496h-36zm-215.008.48l.016.016c13.312 13.504 28.896 24.832 45.984 33.504l-10.992-33.52h-35.008z"/></svg>