<svg viewBox="0 0 512 512" xmlns="http://www.w3.org/2000/svg"><path d="M229.604 349.1l.22 14.8v2h-72.687c-12.372-.5-22.858-4.818-31.457-12.957-4.06-4.48-7.22-9.182-9.48-14.102-2.192-5.797-3.35-11.582-3.476-17.353V67.01c.5-12.374 4.818-22.86 12.956-31.457 4.483-4.06 9.184-7.222 14.104-9.48 5.798-2.192 11.583-3.35 17.353-3.476h113.1c12.374.5 22.86 4.817 31.457 12.956 4.062 4.482 7.223 9.183 9.483 14.103 2.19 5.798 3.348 11.583 3.474 17.353v185.685c-11.255 3.644-22.014 8.714-32.274 15.212V67.01c-1.16-7.498-5.207-11.544-12.138-12.138h-113.1c-7.5 1.162-11.545 5.207-12.138 12.138v254.478c1.16 7.498 5.207 11.544 12.137 12.137h75.958l-3.127 3.127c-.228 2.73-.35 6.846-.364 12.348zm125.46-72.026c28 .52 51.813 10.36 71.438 29.523 19.42 20.323 29.262 44.136 29.525 71.44-.52 28.002-10.36 51.815-29.524 71.44-20.322 19.42-44.135 29.26-71.44 29.523-28-.52-51.813-10.36-71.44-29.524-19.42-20.32-29.26-44.134-29.523-71.44.52-28 10.36-51.813 29.523-71.44 20.324-19.42 44.136-29.26 71.44-29.522zm-58.638 65.256c-6.52 11.322-9.868 23.225-10.05 35.707.516 19.09 7.205 35.297 20.07 48.62 14.01 13.117 30.218 19.807 48.618 20.068 13.12-.355 25.022-3.706 35.708-10.05zM413.7 413.745c6.52-11.323 9.87-23.226 10.052-35.708-.52-18.808-7.284-34.94-20.29-48.398-14.143-13.264-30.277-20.027-48.4-20.29-13.12.355-25.02 3.705-35.706 10.05zM270.067 479H141v-32.274h56.55V422.45h-49.69c-25.353-.522-46.957-9.48-64.813-26.873-17.652-18.553-26.61-40.157-26.873-64.812V248.8H88.45v81.965c.52 16.442 6.325 30.44 17.417 41.993 12.244 11.347 26.24 17.152 41.992 17.417h81.965v56.55H242.4c6.927 10.927 16.15 21.686 27.666 32.275z"/></svg>