<svg viewBox="0 0 512 512" xmlns="http://www.w3.org/2000/svg" fill="#fff"><path d="M428.027 109.526v347.2c-.257 4.512-1.048 8.458-2.374 11.84-1.972 3.824-4.137 7.013-6.496 9.564-3.213 2.81-6.402 4.974-9.565 6.495-4.043 1.46-7.99 2.252-11.84 2.374H115c-4.513-.257-8.46-1.048-11.84-2.375-3.825-1.97-7.014-4.136-9.566-6.495-2.81-3.213-4.974-6.4-6.496-9.564-1.46-4.043-2.252-7.99-2.374-11.84v-113.93L113 314.52v-76.227l-28.276-35.345V60.87c.257-4.51 1.048-8.458 2.374-11.84 1.972-3.824 4.137-7.012 6.496-9.564 3.213-2.808 6.402-4.973 9.565-6.495 4.042-1.46 7.99-2.25 11.84-2.373h234.1zm-32.275 345.2V122.89l-60.018-60.018H117v128.734l28.276 35.345V327.85c-4.948 5.267-9.77 10.176-14.465 14.726-4.693 4.55-9.297 9.078-13.81 13.585v98.565h278.752zm-226.2-367.58h32.273v88.827H169.55V87.147zm56.55 0h32.274v88.827H226.1V87.147zm56.55 0h32.274v88.827H282.65V87.147z"/></svg>