<svg viewBox="0 0 512 512" xmlns="http://www.w3.org/2000/svg" fill="#fff"><path d="M449.184 448H63c-11.378-10.584-13.362-19.316-5.953-26.196L239.62 102.3c4.5-3.97 9.923-5.954 16.273-5.954s11.643 1.984 15.876 5.954l182.573 319.504c7.673 7.144 5.954 15.877-5.16 26.196zM84.83 421.01h94.858c-13.23-10.583-23.747-23.416-31.552-38.5-7.806-15.08-12.37-31.354-13.694-48.818zm76.602-95.256c0 23.814 7.74 44.52 23.22 62.115s34.727 28.113 57.748 31.553V232.88c-23.02 3.175-42.27 13.56-57.75 31.156-15.48 17.597-23.218 38.17-23.218 61.718zm39.69-108.354c12.965-6.614 26.724-10.716 41.277-12.304v-59.93zm68.663-71.44v59.137c14.288 1.588 27.783 5.69 40.484 12.303zm0 86.92v186.542c23.02-3.44 42.27-13.957 57.75-31.553 15.48-17.596 23.218-38.235 23.218-61.917s-7.74-44.32-23.22-61.917c-15.478-17.595-34.727-27.98-57.748-31.156zm107.56 101.606c-1.058 17.198-5.556 33.273-13.494 48.224-7.938 14.95-18.39 27.716-31.355 38.3h94.463z"/></svg>