<svg viewBox="0 0 512 512" xmlns="http://www.w3.org/2000/svg" fill="#fff"><path d="M441.578 137v284.752c-.517 16.07-6.271 29.834-17.264 41.286-12.128 11.24-25.89 16.994-41.287 17.264H128.55c-16.073-.518-29.836-6.273-41.287-17.264-11.245-12.126-17-25.888-17.264-41.286V137h56.55v-26.275c.527-23.885 9.043-44.31 25.548-61.28 17.663-16.763 38.09-25.28 61.277-25.546 15.54.344 29.752 4.07 42.634 11.178 13.527-7.28 27.592-11.006 42.192-11.18 23.884.53 44.31 9.044 61.277 25.548 16.763 17.664 25.28 38.09 25.547 61.28V137h56.55zm-141.376 0h52.55v-26.275c-.527-14.978-5.89-27.797-16.092-38.458-11.35-10.46-24.17-15.826-38.458-16.093-5.705.19-10.863.956-15.476 2.294 8.566 11.813 13.906 24.275 16.018 37.383.927 6.948 1.413 13.784 1.458 20.507V137zm-32.275 0v-26.275c-.526-14.978-5.89-27.797-16.092-38.458-11.35-10.46-24.17-15.826-38.46-16.093-14.968.514-27.788 5.88-38.457 16.093-10.46 11.35-15.824 24.17-16.092 38.458V137h109.1zm-165.652 32.275v252.477c.252 3.956.934 7.372 2.044 10.25 1.77 3.365 3.653 6.14 5.653 8.327 5.975 5.13 12.167 7.697 18.577 7.697h202.107c-3.968-8.66-6.03-17.42-6.18-26.275V169.275H102.275zm254.477 0v252.477c.252 3.956.934 7.372 2.044 10.25 1.77 3.365 3.654 6.14 5.654 8.327 2.86 2.455 5.636 4.34 8.328 5.653 3.55 1.244 6.966 1.924 10.25 2.044 3.955-.252 7.372-.933 10.248-2.044 3.367-1.77 6.142-3.654 8.33-5.654 2.455-2.86 4.34-5.637 5.653-8.33 1.242-3.55 1.923-6.965 2.043-10.248V169.275h-52.55z"/></svg>