<svg viewBox="0 0 512 512" xmlns="http://www.w3.org/2000/svg" fill="#fff"><path d="M305.02 24.077c32.99 0 59.075 14.065 76.522 31.512 17.46 17.46 31.51 43.505 31.51 76.518v190.858c0 31.828-9.046 58.323-21.478 79.538-20.066 34.242-52.03 60.67-94.19 72.38-13.43 3.73-27.385 5.595-41.844 5.595-31.83 0-58.324-9.048-79.54-21.48-34.24-20.067-60.668-52.03-72.38-94.19-3.73-13.432-5.594-27.385-5.594-41.844V132.108c0-32.988 14.066-59.074 31.512-76.52 17.462-17.462 43.505-31.51 76.52-31.51h98.963zm75.757 108.03c0-23.17-9.907-41.33-22.167-53.59-12.27-12.27-30.405-22.166-53.59-22.166h-33.344v141.377H239.4V56.35h-33.343c-23.168 0-41.333 9.91-53.59 22.168-12.27 12.272-22.167 30.404-22.167 53.59v190.858c0 38.06 16.628 68.374 36.747 88.492 20.138 20.137 50.405 36.746 88.492 36.746 38.058 0 68.373-16.63 88.49-36.746 20.14-20.138 36.747-50.404 36.747-88.492V132.108z"/></svg>