<svg viewBox="0 0 512 512" xmlns="http://www.w3.org/2000/svg" fill="#fff"><path d="M333.275 206.386c15.593.644 27.748 6.988 36.467 19.034 6.8-3.108 13.494-4.74 20.084-4.896 12.372.5 22.857 4.817 31.456 12.956 4.06 4.482 7.222 9.183 9.48 14.103 2.192 5.798 3.35 11.583 3.476 17.354v84.825c-.27 18.073-3.673 34.83-10.215 50.275-7.2 15.884-16.435 29.566-27.703 41.045C370.395 466.094 339.955 478.734 305 479c-42.33-.527-79.176-16.26-110.538-47.195L90.196 327.54c-8.663-9.532-13.13-20.387-13.398-32.562.504-12.82 5.044-23.748 13.62-32.78 9.545-8.674 20.4-13.14 32.56-13.4 12.795.548 23.646 5.085 32.554 13.613l20.23 20.04v-68.168c-8.638-4.47-16.223-9.585-22.757-15.347-7.2-6.815-13.244-13.947-18.13-21.395-10.257-16.84-15.478-34.834-15.665-53.98.52-28 10.362-51.813 29.525-71.44 20.32-19.42 44.134-29.26 71.44-29.522 28 .52 51.813 10.36 71.44 29.523 19.42 20.322 29.26 44.136 29.522 71.44-.537 28.095-10.374 51.865-29.512 71.308 4.36 1.75 8.152 3.77 11.373 6.067 4.082 3.41 7.463 6.87 10.142 10.373 6.815-3.125 13.526-4.766 20.135-4.922zm-68.688-30.423c15.88-14.407 23.972-31.875 24.275-52.402-.52-18.807-7.284-34.94-20.29-48.4-14.144-13.26-30.277-20.023-48.397-20.288-18.95.523-35.158 7.286-48.62 20.29-13.118 14.005-19.808 30.138-20.07 48.4.604 21.255 8.696 38.722 24.277 52.4v-52.4c.5-12.373 4.817-22.86 12.956-31.458 4.48-4.062 9.182-7.222 14.102-9.482 5.8-2.19 11.584-3.348 17.355-3.474 12.372.5 22.857 4.817 31.456 12.956 4.062 4.482 7.223 9.183 9.482 14.103 2.19 5.798 3.35 11.583 3.475 17.354v52.403zm-32.275-52.402c-1.16-7.497-5.207-11.543-12.138-12.137-7.5 1.16-11.545 5.207-12.137 12.138v173.85c-.255 3.923-.937 7.318-2.044 10.185-1.73 3.305-3.556 6.042-5.478 8.213-2.797 2.454-5.556 4.336-8.277 5.644-3.57 1.235-6.92 1.914-10.06 2.036-3.788-.238-7.16-.873-10.113-1.903-3.494-1.698-6.41-3.615-8.75-5.752l-30.706-30.705c-3.2-2.46-6.41-3.81-9.632-4.053-3.943.536-7.196 1.893-9.76 4.07-2.52 3.215-3.9 6.493-4.144 9.834.54 3.923 1.89 7.133 4.052 9.63l104.266 104.488c12.613 12.216 25.96 21.54 40.042 27.97 14.89 6.306 30.746 9.526 47.566 9.658 26.753-.522 49.587-10.01 68.5-28.463 18.71-19.617 28.198-42.45 28.463-68.5v-84.826c-1.16-7.498-5.207-11.544-12.137-12.138-4.238.447-7.192 1.565-8.862 3.353-2.235 4.054-3.392 9.6-3.473 16.636l.395 12.568c-.154 8.436-1.557 14.754-4.21 18.95-3.065 3.115-7.106 4.795-12.124 5.042-6.106-.633-10.404-2.698-12.89-6.197-2.56-5.31-3.82-10.932-3.788-16.864.032-5.934.222-10.893.566-14.878 1.146-13.235.23-22.756-2.743-28.565-2.454-2.524-5.594-3.92-9.42-4.186-4.238.45-7.192 1.567-8.862 3.355-2.235 4.056-3.392 9.602-3.472 16.64l.394 12.565c-.154 8.437-1.557 14.754-4.21 18.95-3.064 3.116-7.106 4.795-12.124 5.042-6.107-.632-10.403-2.698-12.89-6.197-2.558-5.31-3.82-10.933-3.79-16.867.033-5.935.223-10.894.568-14.88 1.145-13.23.23-22.75-2.744-28.56-2.453-2.523-5.592-3.918-9.42-4.184-4.238.447-7.192 1.565-8.86 3.353-2.235 4.056-3.392 9.604-3.474 16.645l.393 12.562c-.153 8.437-1.557 14.753-4.21 18.95-3.063 3.114-7.104 4.793-12.123 5.04-4.55-.53-8.335-2.123-11.355-4.783-2.923-3.656-4.518-7.44-4.783-11.353V123.56z"/></svg>