<svg viewBox="0 0 512 512" xmlns="http://www.w3.org/2000/svg" fill="#fff"><path d="M95.52 48H128v112H96V87.52C88.896 91.583 81.376 96 70.496 96V64c7.904 0 20-10.496 20-10.496zM176 96h272v32H176V96zm-72 96c22.128 0 40 17.872 40.016 40.016 0 7.68-3.968 17.44-12 24l.48.48-2 1.504-14.015 14H144v32H64v-26.016l5.008-4.48 41.488-40 1.024-1.024.48-.48c0-3.472-4.528-8-8-8-3.472 0-8 4.528-8 8v8H64v-8c0-22.128 17.872-40 40-40zm72 48h272v32H176v-32zM64 336h64v23.504l-2 4-6.48 10.992C133.15 380.864 144 391.92 144 408c0 22.128-17.872 40-40 40H64v-32h40c3.472 0 8-4.528 8-8s-4.528-8-8-8H80v-21.984l2-3.52L86 368H64v-32zm112 48h272v32H176v-32z"/></svg>