<svg viewBox="0 0 512 512" xmlns="http://www.w3.org/2000/svg" fill="#fff"><path d="M335.475 295.784c3.277-3.276 16.11-15.838 38.503-37.684l38.502-37.273-106.086-15.565-47.923-96.255-47.513 96.255-106.496 15.565 77.415 74.957-18.43 106.087 95.026-50.38 95.027 50.38zm132.71-90.112c0 3.55-2.184 7.51-6.553 11.88l-91.34 89.292L392 433c.27 1.093.408 2.73.408 4.915 0 8.466-3.55 12.698-10.65 12.698-3.004 0-6.28-.956-9.83-2.867l-113.05-59.802-113.46 59.802c-3.55 1.91-6.963 2.867-10.24 2.867-3.275 0-5.802-1.228-7.577-3.686-1.775-2.458-2.662-5.462-2.662-9.012 0-.82.137-2.457.41-4.915l21.71-126.156-91.75-89.293c-4.097-4.368-6.145-8.328-6.145-11.878-.273-6.28 4.37-10.103 13.926-11.47l126.567-18.43 56.526-114.688c3.276-7.1 7.44-10.65 12.492-10.65 5.052 0 9.216 3.55 12.493 10.65l56.524 114.688 126.566 18.43c9.558 1.367 14.336 5.19 14.336 11.47h-.41z"/></svg>