<svg viewBox="0 0 512 512" xmlns="http://www.w3.org/2000/svg" fill="#fff"><path d="M211.725 85.147H244v32.275h-32.275V85.147zm56.55 0h32.275v32.275h-32.275V85.147zm-113.1-56.55H357.1v113.165c12.154 1.505 20.788 7.555 25.902 18.15 1.458 4.027 2.25 7.9 2.374 11.62v198.81c-.26 4.38-1.05 8.254-2.374 11.62-1.98 3.82-4.152 6.98-6.516 9.475-6.86 5.825-13.99 8.74-21.385 8.74h-82.824V485H240v-84.825h-82.825c-13.11-.77-22.412-6.84-27.9-18.212-1.46-4.028-2.25-7.9-2.375-11.62v-198.81c.26-4.382 1.052-8.255 2.374-11.622 1.98-3.82 4.152-6.977 6.516-9.473 6.006-5.1 12.468-7.99 19.385-8.675V28.598zm32.274 32.275v80.826h137.376V60.872H187.45zM353.1 367.9V173.972H159.176V367.9H353.1z"/></svg>