<svg viewBox="0 0 512 512" xmlns="http://www.w3.org/2000/svg" fill="#fff"><path d="M365.42 227.277c-18.936 0-34.288 15.35-34.288 34.288 0 18.937 15.352 34.287 34.288 34.287s34.27-15.35 34.27-34.287c0-18.937-15.333-34.288-34.27-34.288zm-218.466 0c-18.938 0-34.29 15.35-34.29 34.288 0 18.937 15.353 34.287 34.29 34.287 18.935 0 34.288-15.35 34.288-34.287 0-18.937-15.353-34.288-34.288-34.288zm109.098 0c-18.936 0-34.288 15.35-34.288 34.288 0 18.937 15.352 34.287 34.288 34.287 18.936 0 34.27-15.35 34.27-34.287 0-18.937-15.333-34.288-34.27-34.288z"/></svg>