<svg viewBox="0 0 512 512" xmlns="http://www.w3.org/2000/svg" fill="#fff"><path d="M240.725 191.523H273V450h-32.275V191.523zM386.1 235.937c0 40.32-17.758 71.16-39.33 92.734l-22.71-22.708c16.395-16.394 29.545-39.313 29.545-70.025 0-30.705-13.16-53.642-29.545-70.025l22.71-22.71c21.591 21.593 39.33 52.394 39.33 92.735zm-226.2 0c0 30.675 13.4 53.66 29.764 70.025l-22.708 22.71c-21.592-21.593-39.332-52.396-39.332-92.735 0-40.322 17.76-71.16 39.332-92.734l22.71 22.71c-16.378 16.373-29.767 39.344-29.767 70.024zm311.027 0c0 66.8-28.326 116.82-64.068 152.824l-22.936-22.935c30.443-30.443 54.728-73.207 54.728-129.89 0-56.648-24.315-99.474-54.728-129.89l22.935-22.933c35.777 36.04 64.067 85.984 64.067 152.824zm-395.854 0c0 56.648 24.315 99.475 54.727 129.89l-22.934 22.935c-35.778-36.042-64.068-85.984-64.068-152.824 0-66.8 28.325-116.82 64.068-152.824l22.934 22.934c-30.442 30.444-54.727 73.208-54.727 129.89z"/></svg>