<svg viewBox="0 0 512 512" xmlns="http://www.w3.org/2000/svg" fill="#fff"><path d="M239.927 262.624H42V119.248c.257-4.513 1.048-8.46 2.374-11.84 1.972-3.825 4.137-7.013 6.496-9.565 3.214-2.81 6.402-4.975 9.565-6.496 4.043-1.46 7.99-2.252 11.84-2.374h367.578c4.513.256 8.46 1.047 11.84 2.374 3.825 1.97 7.014 4.136 9.566 6.496 2.808 3.213 4.973 6.4 6.495 9.564 1.46 4.043 2.252 7.99 2.374 11.84v143.377H272.2V286.9h28.275v56.55h56.55v28.275H470.13V404H357.026v28.275H155.1V404H42v-32.275h113.1V343.45h56.55V286.9h28.276v-24.276zm28.275 113.1v-56.55h-24.275v56.55h-56.55V400h137.376v-24.275h-56.55zM74.275 121.25v109.1h363.578v-109.1H74.275zm307.028 40.413c1.177-10.11 6.557-15.488 16.138-16.137 4.55.53 8.335 2.124 11.355 4.784 2.924 3.656 4.52 7.44 4.783 11.354-1.176 10.11-6.556 15.49-16.137 16.14-4.548-.532-8.333-2.125-11.354-4.785-2.924-3.657-4.518-7.44-4.783-11.354z"/></svg>