<svg viewBox="0 0 512 512" xmlns="http://www.w3.org/2000/svg" fill="#fff"><path d="M137.504 80H176v160h-32V137.504C133.12 149.2 118.016 160 96 160v-32c15.68 0 23.648-7.68 30-17.008 6.352-9.296 9.008-18.51 9.008-18.51zM352 80h32v298.992l41.504-41.488L448 360l-68.48 68.992L368 440l-11.52-10.992L288 360l22.496-22.496L352 379.008V80zM136 272h16c30.784 0 56 25.216 56 56 0 21.52-13.76 38.848-30 48.976-17.727 10.912-31.232 16.96-43.008 23.008H208v32H80v-16c0-9.28 4.384-18.448 9.984-24.48 5.648-6.064 12.288-9.952 19.52-14 14.43-8.096 31.744-15.84 51.488-28C170.352 343.68 176 335.296 176 328c0-14.016-9.984-24-24-24h-16c-14.016 0-24 9.984-24 24v8H80v-8c0-30.784 25.216-56 56-56z"/></svg>