<svg viewBox="0 0 512 512" xmlns="http://www.w3.org/2000/svg" fill="#fff"><path d="M80 96h352c26.32 0 48 21.68 48 48v224c0 26.32-21.68 48-48 48H80c-26.32 0-48-21.68-48-48V144c0-26.32 21.68-48 48-48zm0 32c-9.04 0-16 6.96-16 16v224c0 9.04 6.96 16 16 16h352c9.04 0 16-6.96 16-16V144c0-9.04-6.96-16-16-16H80zm112 16c23.776 0 45.824 7.28 64 20 18.08-12.672 40.192-20 64-20 61.664 0 112 50.336 112 112s-50.336 112-112 112c-23.808 0-45.92-7.328-64-20-18.176 12.72-40.224 20-64 20-61.664 0-112-50.336-112-112s50.336-112 112-112zm0 32c-44.368 0-80 35.632-80 80s35.632 80 80 80c20.528 0 38.88-7.952 53.008-20.48-6.56-8.24-11.92-17.44-15.52-27.52h35.52c2.224-5.088 4.368-10.4 5.488-16h-44.992c-.864-5.216-1.504-10.528-1.504-16s.608-10.784 1.504-16h44.992c-1.136-5.6-3.248-10.912-5.488-16h-35.52c3.6-10.08 8.96-19.28 15.52-27.52C230.88 183.936 212.512 176 192 176zm128 0c-14.64 0-28.192 4.144-40 10.992 15.04 19.088 24 42.928 24 69.008s-8.96 49.92-24 68.992C291.808 331.84 305.36 336 320 336c44.384 0 80-35.616 80-80s-35.616-80-80-80z"/></svg>