<svg viewBox="0 0 512 512" xmlns="http://www.w3.org/2000/svg" fill="#fff"><path d="M192 80c28 0 47.04 21.28 59.52 38.992 1.648 2.368 3.008 4.688 4.48 7.008 1.472-2.32 2.832-4.624 4.48-6.992C272.96 101.28 292 80 320 80c26.32 0 48 21.68 48 48 0 5.648-1.168 10.944-3.008 16H448v96h-16v208H80V240H64v-96h83.008c-1.84-5.056-3.008-10.352-3.008-16 0-26.32 21.68-48 48-48zm0 32c-9.04 0-16 6.96-16 16s6.96 16 16 16h37.008c-1.92-3.312-1.568-3.52-4-6.992C214.976 122.72 202.016 112 192 112zm128 0c-10 0-22.976 10.752-33.008 24.992-2.432 3.49-2.08 3.712-4 7.008H320c9.04 0 16-6.96 16-16s-6.96-16-16-16zM96 176v32h144v-16h32v16h144v-32H96zm16 64v176h128V256h32v160h128V240H112z"/></svg>