<svg viewBox="0 0 512 512" xmlns="http://www.w3.org/2000/svg" fill="#fff"><path d="M192 48c35.248 0 60.64 16.096 72.512 37.008.432-.656.528-1.36 1.008-2C272.752 72.736 286.543 64 304.015 64v32.016c-7.25 0-9.408 1.76-11.52 4.48 61.52 14.736 109.008 65.68 121.008 129.008C432.592 235.84 448 250.88 448 272c0 21.857-16.4 37.28-36.48 42.992C398.448 390.24 334.4 448 256 448s-142.432-57.807-155.52-132.992C80.383 309.28 64 293.84 64 272c0-21.824 16.4-37.28 36.495-43.007 11.872-68.32 65.968-122.208 134.512-131.488C228.767 88.32 215.935 80 192 80V48zm64 80c-65.488 0-119.36 49.92-126.496 114L128 256h-16c-8.88 0-16 7.12-16 16s7.12 16 16 16h16l1.504 14C136.64 366.08 190.512 416 256 416s119.36-49.92 126.496-114L384 288h16c8.88 0 16-7.12 16-16s-7.12-16-16-16h-14l-2-14c-8.576-64.304-62.512-114-128-114zm-56 128c13.248 0 24 10.752 24 24s-10.752 24-24 24-24-10.752-24-24 10.752-24 24-24zm112 0c13.248 0 24 10.752 24 24s-10.752 24-24 24-24-10.752-24-24 10.752-24 24-24z"/></svg>