<svg viewBox="0 0 512 512" xmlns="http://www.w3.org/2000/svg" fill="#fff"><path d="M399.915 52.606c41.313 41.313 67.7 90.317 79.166 147.016 10.914 57.06 5.538 111.934-16.128 164.624-15.148 35.687-36.16 66.97-63.037 93.845l-22.71-22.708c36.472-36.47 59.918-80.01 70.34-130.618 9.72-50.175 4.935-98.865-14.356-146.07-13.42-31.682-32.08-59.475-55.984-83.378zM340.05 112.47c29.016 29.015 47.672 63.623 55.973 103.826 7.603 39.788 3.81 78.316-11.38 115.584-10.764 25.268-25.628 47.383-44.592 66.348l-22.93-22.93c16.366-16.365 28.953-34.955 37.76-55.77 8.385-20.895 12.64-42.288 12.772-64.18-.264-22.56-4.52-43.95-12.77-64.18-9.098-21.102-21.685-39.692-37.76-55.768zm-60.084 60.085c23.145 23.145 34.856 50.743 35.136 82.794-.544 32.314-12.256 59.913-35.136 82.793l-22.71-22.71c16.772-16.77 25.295-36.798 25.57-60.084-.535-23.546-9.057-43.574-25.57-60.086zM223 57.5v397l-27.5-27L104 336H31V176h73l91.5-91.5zM191 135l-68.5 68.5-5 4.5H63v96h54.5l5 4.5L191 377V135z"/></svg>