<svg viewBox="0 0 512 512" xmlns="http://www.w3.org/2000/svg" fill="#fff"><path d="M334 41.008h-.016l11.52 11.473 28.992 29.04h56v56l29.024 28.96L471.007 178l-12 10.992L430.496 216v57.49h-56l-28.96 27.486-11.52 11.01-10.992-10.994-24-24-187.01 186.48-11.006 11.52-11.49-11.488-41.022-41.008-11.488-10.977L48.48 400l186.527-186.992-24-24L200 178.016l10.975-11.52 27.52-29.008v-56H296l26.992-28.48zm.48 45.984l.016.016-20.48 21.488-4.48 5.008h-39.04v36.96l-4.48 4.512-21.52 22.496L258 190.96l61.007-61.472 11.49-11.04 11.007 11.04 40.992 40.96 11.52 11.52-11.52 10.992-61.49 61.008 13.49 13.52 22.496-21.52 4.512-4.48h36.992V202.48l5.023-4.512 21.504-20.48-22-21.984-4.513-5.008v-36.992h-36.99l-5.024-4.512zm-4 76.512l.03-.016-248 248 18.497 18.016 247.488-247.52zM304 336h32v16h16v32h-16v16h-32v-16h-16v-32h16v-16zm96 32h32v32h32v32h-32v32h-32v-32h-32v-32h32v-32z"/></svg>