<svg viewBox="0 0 512 512" xmlns="http://www.w3.org/2000/svg" fill="#fff"><path d="M256 48h16v32h-16V48zm50.496 7.008L320 58.528l.48.48h.512l13.488 5.008h.512l.512.48 1.504.53-13.52 28.96h-.48L322 93.503l-10.992-4-1.024-.512-12.48-3.488zM64 64h128v128h-32v-83.52C111.52 140.16 80 192.96 80 256c0 96.88 79.12 176 176 176s176-79.12 176-176v-16h32v16c0 114.32-93.68 208-208 208S48 370.32 48 256c0-64.96 28.736-121.84 74.496-160H64V64zm301.504 16h-.016L374 85.504l.48.512h.48l11.04 8.48.48.512h.512l4.512 4-21.008 24-3.488-3.008-1.008-.48-8.992-7.04L356 112l-7.52-4.992zm48.992 41.504v.016l3.52 4.48.48.512.512.48 8.51 11.008v.512l.482.48 5.504 8.528-27.008 17.52-4.512-7.52-.96-1.024-7.04-9.52-.48-.48-3.49-4zM448.48 176h.03l.482 2 .51.512v.48L454.497 192v.496l.51 1.008 3.49 13.504-30.496 8.48-3.52-12.48L424 202l-4-11.008-.48-1.008v-.48z"/></svg>