<svg viewBox="0 0 512 512" xmlns="http://www.w3.org/2000/svg" fill="#fff"><path d="M85.967 319.588c0-8.683 7.455-16.138 16.138-16.138 8.68 0 16.137 7.455 16.137 16.138s-7.455 16.138-16.138 16.138c-8.682 0-16.137-7.455-16.137-16.138zm311.027 0c0-8.683 7.455-16.138 16.138-16.138 8.68 0 16.137 7.455 16.137 16.138s-7.456 16.138-16.138 16.138c-8.683 0-16.138-7.455-16.138-16.138zm65.886-129.24h22.94v32.276h-9.355l-13.08 12.883c7.446 21.63 15.365 45.695 22.434 67.416v143.903c0 14.042-8.45 23.56-18.434 27.902-3.65 1.586-7.614 2.374-11.84 2.374H427.27c-14.043 0-23.56-8.452-27.902-18.435-1.335-3.07-2.103-6.358-2.314-9.84H118.182c-.778 12.84-8.755 21.72-18.374 25.9-3.65 1.588-7.612 2.375-11.84 2.375H59.69c-14.043 0-23.56-8.452-27.9-18.435-1.588-3.65-2.375-7.613-2.375-11.84V302.922c6.467-19.87 14.246-41.944 20.638-61.923.804-2.51 1.39-4.315 1.797-5.493l-13.08-12.883h-9.355V190.35h22.94c3.628 3.69 7.256 7.384 10.884 11.075l15.314-46.145c7.293-22.33 24.362-38.68 46.438-46.117 7.204-2.427 14.75-3.64 22.62-3.64h220.015c17.446 0 31.633 6.017 42.466 13.735 11.894 8.475 21.383 21.02 26.586 36.013l15.316 46.155c3.628-3.69 7.256-7.384 10.884-11.076zM147.61 137.8c-19.22 0-33.228 12.592-38.31 27.58l-17.888 53.246h332.412l-17.89-53.25c-5.084-14.996-19.085-27.575-38.31-27.575H147.61zm192.833 278.753v-8.35L318.236 364H197l-22.207 44.2v8.35h165.65zm-197.925 0v-15.92l26.273-52.768c-8.705-17.797-17.827-35.178-26.272-53.236V250.9h-61.77c-6.488 18.44-13.04 38.538-19.056 57.076V416.55h80.826zM340.443 250.9h-165.65v36.624l22.207 44.2h121.236l22.207-44.2V250.9zm32.276 165.65h80.825V307.978c-5.366-16.538-11.81-36.263-17.668-52.662-.684-1.92-1.184-3.353-1.516-4.415h-61.64v44.197l-26.274 52.766 26.273 52.766v15.92zm28.274-351.44c0 8.683-7.455 16.138-16.138 16.138H130.38c-8.683 0-16.138-7.455-16.138-16.138 0-8.683 7.455-16.138 16.137-16.138h254.476c8.682 0 16.138 7.455 16.138 16.138z"/></svg>