<svg viewBox="0 0 512 512" xmlns="http://www.w3.org/2000/svg" fill="#fff"><path d="M155 322.175h32.274v32.274H155v-32.275zm84.825 0H272.1v32.274h-32.275v-32.275zm84.826 0h32.275v32.274H324.65v-32.275zM155 407h32.274v32.275H155V407zm84.825 0H272.1v32.275h-32.275V407zm84.826 0h32.275v32.275H324.65V407zm86.827-137.376h-56.55c-13.14-.772-22.443-6.96-27.907-18.56-1.455-4.086-2.244-7.992-2.368-11.715v-26.277H187.275v26.276c-.773 13.138-6.958 22.44-18.56 27.906-4.086 1.455-7.99 2.244-11.715 2.368h-56.55c-13.14-.772-22.444-6.96-27.908-18.56-1.455-4.086-2.244-7.992-2.368-11.715v-28.277c.657-26.73 13.13-50.113 37.417-70.147 30.886-24.156 70.373-38.622 118.462-43.397 43.294-4.05 84.15.474 122.568 13.573 34.565 12.298 60.18 29.622 76.848 51.97 10.64 15.438 16.068 31.438 16.284 48v28.276c-.772 13.14-6.96 22.442-18.56 27.906-3.71 1.58-7.615 2.368-11.715 2.368zM102.45 237.35H155v-26.276c.257-4.513 1.048-8.46 2.374-11.84 1.972-3.825 4.137-7.014 6.495-9.566 3.213-2.808 6.4-4.973 9.563-6.495 4.043-1.46 7.99-2.252 11.84-2.374h141.378c4.514.256 8.46 1.047 11.842 2.373 3.824 1.972 7.013 4.137 9.564 6.495 2.81 3.214 4.974 6.402 6.496 9.565 1.46 4.043 2.25 7.99 2.374 11.84v26.276h52.55v-26.276c-.264-6.478-1.46-12.323-3.59-17.537-2.773-5.824-5.95-10.965-9.532-15.423-18.475-20.872-45.976-35.41-82.505-43.617-18.967-4.167-38.263-6.25-57.887-6.25-30.62 0-59.328 4.82-86.128 14.46-32.71 12.44-53.977 29.382-63.796 50.83-2.266 5.884-3.463 11.73-3.59 17.537v26.275z"/></svg>