<svg viewBox="0 0 512 512" xmlns="http://www.w3.org/2000/svg" fill="#fff"><path d="M176 80c29.712 0 53.792 20.56 60.992 48h38c7.216-27.44 31.296-48 61.008-48 31.488 0 56.64 23.072 62 52.992 30.432 7.808 56.32 27.68 68 56v.528l.512.48 36.48 102C508.8 305.504 512 320.416 512 336c0 61.664-50.336 112-112 112-55.552 0-101.856-40.832-110.496-94-8.704 8.56-20.48 14-33.504 14-13.024 0-24.816-5.44-33.504-14-8.656 53.168-54.944 94-110.496 94C50.336 448 0 397.664 0 336c0-17.536 4.24-34.192 11.49-49.024l34.03-95.472H46c11.52-31.216 37.76-50.88 68-58.496C119.36 103.04 144.512 80 176 80zm0 32c-19.04 0-32 12.96-32 32v14.496L129.504 160C104.928 162.592 85.28 177.216 76 202.016v.48l-12 32.512C78.56 228.048 94.848 224 112 224c46.768 0 86.784 29.072 103.52 70 8.56-13.296 23.633-22 40.48-22 16.865 0 31.936 8.72 40.48 21.984 16.72-40.928 56.736-70 103.52-70 17.377 0 33.793 4.384 48.48 11.52l-12-34c-.127-.352-.32-.672-.48-1.024-9.247-21.408-29.727-37.984-53.503-40.48L368 158.496V144c0-19.04-12.96-32-32-32s-32 12.96-32 32v16h-96v-16c0-19.04-12.96-32-32-32zm-64 144c-32.32 0-59.84 19.072-72.512 46.496-.272.608-.224 1.392-.48 1.985C34.8 314.24 32 324.673 32 336c0 44.368 35.632 80 80 80s80-35.632 80-80-35.632-80-80-80zm288 0c-44.368 0-80 35.632-80 80s35.632 80 80 80 80-35.632 80-80-35.632-80-80-80zm-144 48c-9.024 0-16 6.976-16 16 0 9.024 6.976 16 16 16s16-6.976 16-16c0-9.024-6.976-16-16-16z"/></svg>