<svg viewBox="0 0 512 512" xmlns="http://www.w3.org/2000/svg" fill="#fff"><path d="M452.872 192.84c0-35.683-13.304-59.62-37.09-70.86-13.98-6.608-26.337-9.105-45.41-9.105-19.898 0-39.773 11.525-52.45 21.142-13.744 10.426-25.156 20.362-35.192 31.83-3.21 4.175-7.755 6.18-13.336 6.18-5.58 0-10.206-2.104-13.416-6.277-9.973-11.398-21.435-21.36-35.11-31.733-12.713-9.643-32.514-21.142-52.45-21.142-28.282 0-50.533 7.644-64.428 23-10.918 12.07-18.073 33.03-18.073 56.965 0 26.263 14.67 54.402 44.622 84.354L269.394 411.03l138.46-133.44c30.237-30.237 45.017-58.493 45.017-84.75zm34.843 0c0 36.223-18.853 72.916-55.96 110.023L281.37 447.753c-3.194 3.196-7.284 4.812-11.975 4.812s-8.755-1.59-11.95-4.786L106.68 302.5c-1.553-1.25-3.663-3.306-6.466-6.25-8.367-8.79-23.076-27.59-30.268-39.65-8.79-14.737-18.87-40.924-18.87-63.763 0-35.598 10.358-63.798 31.232-84.24 20.872-20.44 49.688-30.57 86.11-30.57 23.93 0 44.962 9.033 60.667 19.34 16.39 10.756 27.198 19.527 40.31 31.875 13.098-12.335 23.933-21.127 40.31-31.874 15.733-10.325 36.706-19.34 60.668-19.34 36.42 0 65.237 10.13 86.11 30.57 20.874 20.442 31.233 48.642 31.233 84.24z"/></svg>