<svg viewBox="0 0 512 512" xmlns="http://www.w3.org/2000/svg" fill="#fff"><path d="M168.915 362.313v-32.276h119.55L271.69 313.26l21.82-21.822 54.97 54.737-54.97 54.736-21.82-21.82 16.775-16.778h-119.55zm173.65 52.55v32.275h-119.55l16.776 16.777-21.82 21.822L163 431l54.97-54.736 21.82 21.822-16.776 16.777h119.55zm0-280.752c-.598 26.807-10.73 48.785-30.402 65.936 25.857 11.656 46.59 28.846 62.204 51.574 16.3 24.996 24.55 51.8 24.75 80.417v2H366.84v-2c-.532-30.59-11.418-56.74-32.66-78.442-22.414-21.505-48.56-32.39-78.44-32.66-30.59.533-56.74 11.42-78.442 32.66-21.504 22.415-32.39 48.563-32.66 78.442v2h-32.274v-2c.395-29.288 8.644-56.095 24.75-80.418 16.257-23.24 36.99-40.43 62.203-51.574-19.966-17.877-30.1-39.856-30.402-65.935.527-23.885 9.043-44.31 25.547-61.277 17.664-16.765 38.09-25.282 61.278-25.548 23.885.527 44.31 9.043 61.278 25.548 16.765 17.663 25.28 38.09 25.547 61.278zm-141.376 0c.514 14.97 5.878 27.79 16.092 38.46 11.628 10.726 24.447 16.09 38.458 16.09 14.977-.527 27.797-5.89 38.458-16.09 10.467-11.346 15.83-24.165 16.093-38.46-.527-14.977-5.89-27.797-16.092-38.458-11.35-10.46-24.17-15.824-38.458-16.092-14.97.515-27.79 5.88-38.458 16.092-10.46 11.35-15.825 24.17-16.093 38.46z"/></svg>