<svg viewBox="0 0 512 512" xmlns="http://www.w3.org/2000/svg" fill="#fff"><path d="M454.752 274.35c14.042 0 23.56 8.448 27.9 18.434 1.587 3.65 2.374 7.612 2.374 11.84V448h-56.55v28.276H226.55V448H170V334.9h-26.276c-35.03 0-62.712-15.276-81.27-33.833-18.574-18.576-33.83-46.212-33.83-81.27 0-35.028 15.274-62.712 33.83-81.27 18.577-18.574 46.214-33.83 81.27-33.83 6.478 0 13.015.595 19.61 1.78 17.023-25.415 42.43-45.43 75.528-54.177 10.474-2.77 21.178-4.153 32.1-4.153 36.518 0 65.686 14.635 86.16 32.982 20.938 18.762 37.992 46.063 42.196 80.118h29.158v113.1h26.276zm-58.55-80.828H258.824v80.826H396.2v-80.826zm-125.24-113.1c-22.434 0-41.042 7.53-55.076 17.314-16.345 11.397-28.532 27.578-36.15 47.692-11.114-5.186-23.217-8.455-36.01-8.455-25.436 0-45.102 10.805-58.562 24.265-13.39 13.392-24.265 33.316-24.265 58.56 0 25.435 10.804 45.1 24.264 58.56 13.473 13.474 33.108 24.266 58.56 24.266h26.336c.778-12.843 8.755-21.72 18.374-25.9 3.65-1.588 7.613-2.375 11.84-2.375h26.276V161.247h139.49c-4.06-23.983-16.466-43.65-31.784-57.136-15.087-13.28-36.488-23.69-63.293-23.69zM396.203 444v-24.275H258.824V444H396.2zm56.55-28.275v-109.1H202.274v109.1h24.275V387.45h201.926v28.275h24.276zm-226.202-68.69c0-8.682 7.455-16.136 16.138-16.136s16.137 7.453 16.137 16.136-7.455 16.138-16.137 16.138-16.138-7.455-16.138-16.138z"/></svg>