<svg viewBox="0 0 512 512" xmlns="http://www.w3.org/2000/svg" fill="#fff"><path d="M456.402 73.248v32.275H56V73.248h400.402zM56 158.074h400.402v32.274H56v-32.274zM286.752 360H56v-32.274h230.752V360zm-8.283 31.67c10.594-6.238 21.446-8.534 32.557-6.89V264.103l145.376-36.344v158.517c-.345 5.148-1.51 9.51-3.5 13.087-2.8 3.863-5.784 7.004-8.95 9.426-7.842 4.96-16.14 7.55-24.894 7.763-15.224-.654-26.505-6.384-33.845-17.188-2.17-4.233-3.335-8.595-3.5-13.087.345-5.147 1.51-9.51 3.5-13.086 2.8-3.864 5.784-7.005 8.95-9.427 7.84-4.96 16.14-7.55 24.894-7.763 1.987.08 3.677.19 5.068.336V269.11l-80.826 20.205V414.55c-.37 5.314-1.66 9.806-3.87 13.478-3.032 3.905-6.205 7.04-9.52 9.404-8.023 4.725-16.597 7.19-25.72 7.394-15.778-.622-27.525-6.222-35.242-16.798-2.403-4.325-3.693-8.818-3.87-13.478.37-5.313 1.66-9.806 3.87-13.477 3.033-3.905 6.206-7.04 9.52-9.404zm8.282-116.495H56V242.9h230.752v32.275z"/></svg>