<svg viewBox="0 0 512 512" xmlns="http://www.w3.org/2000/svg" fill="#fff"><path d="M286 64h9.52l4.48 8 14.992 26.496c24.736 2.496 58.048 13.28 87.008 52 32.88 44 58 119.504 58 249.504v16H305.504c-15.824 9.872-33.664 16-53.504 16-19.856 0-37.664-6-53.504-16H60v-16c0-145.92 26.768-229.984 70.48-278.496C174.257 72.992 233.137 64 286 64zm-9.008 33.008h-.032c-45.968.944-89.088 8.96-122.496 45.984C120.32 180.865 95.12 253.392 92.96 384h70.544c-1.904-2.43-3.744-4.96-5.504-7.52-21.712-31.04-34-69.312-34-104.48 0-12.51 3.36-24.24 10.016-32.99 6.592-8.77 15.632-14.337 24.96-18.017 18.72-7.376 39.648-8.32 59.52-9.984 19.872-1.68 38.88-3.89 49.984-9.01 11.136-5.135 15.52-9.295 15.52-26h32c0 26.56-15.616 46.29-34.496 55.01-18.88 8.703-39.872 10.302-60 12-20.112 1.68-39.2 3.52-50.512 8-5.648 2.207-9.36 4.655-11.473 7.487-2.16 2.832-3.52 6.4-3.52 13.504 0 27.36 10.288 61.184 28 86.497C201.712 383.84 225.39 400 252 400c26.64 0 50.304-16.223 68-41.503 17.696-25.264 28-58.944 28-86.496h32c0 35.312-12.273 74-33.985 104.993-1.647 2.336-3.248 4.768-5.007 7.008h86c-2.208-114.72-24.832-180.16-50.528-214.495C349.568 133.44 320.16 128 304 128h-9.52l-4.48-8zM204 272c8.832 0 16 7.168 16 16s-7.168 16-16 16-16-7.168-16-16 7.168-16 16-16zm96 0c8.832 0 16 7.168 16 16s-7.168 16-16 16-16-7.168-16-16 7.168-16 16-16z"/></svg>