<svg viewBox="0 0 512 512" xmlns="http://www.w3.org/2000/svg" fill="#fff"><path d="M256 48c114.688 0 208 93.31 208 208s-93.31 208-208 208S48 370.69 48 256c0-114.688 93.31-208 208-208zm-18 33.008v-.016C149.12 90 80 164.69 80 256c0 97.392 78.608 176 176 176 42.976 0 82.464-15.04 113.008-40.496l-124.527-124-4.48-5.008V81.01c-.656.046-1.36-.082-2 0zm34 0v-.016V240h159.008C423.392 155.457 356.544 88.608 272 81.008zM295.008 272h.032l96.448 97.008c22.288-26.688 36.208-60.304 39.52-97.008h-136z"/></svg>