<svg viewBox="0 0 512 512" xmlns="http://www.w3.org/2000/svg" fill="#fff"><path d="M256 48c26.32 0 48 21.68 48 48v117.504l134.496 60.016 9.504 4V354l-18-2-126-14v29.488l40.992 27.52L352 399.52v68l-18.992-4L256 448l-76.992 15.504-19.008 4v-68.048l6.992-4.48L208 367.504V338L82 352l-18 1.984v-76.48l9.504-4 134.496-60V96c0-26.32 21.68-48 48-48zm0 32c-9.04 0-16 6.96-16 16v138.48l-9.504 4L96 298.48V318l126-14 18-2v82.975l-6.992 4.513L192 416.958v11.522l60.992-12 3.008-.96 2.992.99 61.008 12v-11.518l-40.992-27.49-7.008-4.51V302l18 2 126 14.015v-19.52l-134.496-60-9.504-4V96c0-9.04-6.96-16-16-16z"/></svg>