<svg viewBox="0 0 512 512" xmlns="http://www.w3.org/2000/svg" fill="#fff"><path d="M484.853 73.492v286.752H192.756L85 468V360.244H28.45V73.492h456.402zM452.578 327.97V105.767H60.724v222.2h56.55v61.897l61.896-61.896h273.407zM143.55 247.143c-4.512-.257-8.46-1.048-11.84-2.374-3.825-1.972-7.013-4.137-9.564-6.496-2.81-3.213-4.975-6.402-6.496-9.565-1.46-4.043-2.252-7.99-2.374-11.84.256-4.514 1.047-8.46 2.374-11.842 1.97-3.824 4.136-7.012 6.496-9.564 6.763-5.914 13.898-8.87 21.405-8.87 4.514.256 8.46 1.047 11.842 2.373 3.824 1.972 7.013 4.137 9.564 6.496 2.81 3.213 4.975 6.402 6.496 9.565 1.46 4.043 2.252 7.99 2.374 11.84-.256 4.513-1.047 8.46-2.374 11.84-1.97 3.827-4.136 7.014-6.496 9.566-3.214 2.81-6.4 4.974-9.564 6.496-4.043 1.46-7.99 2.252-11.84 2.374zm113.1 0c-4.512-.257-8.458-1.048-11.84-2.374-3.825-1.972-7.012-4.137-9.564-6.496-2.81-3.213-4.975-6.402-6.496-9.565-1.46-4.043-2.252-7.99-2.374-11.84.256-4.514 1.047-8.46 2.374-11.842 1.97-3.824 4.136-7.012 6.496-9.564 3.213-2.81 6.4-4.974 9.564-6.497 4.043-1.46 7.99-2.252 11.84-2.374 4.514.257 8.46 1.048 11.842 2.374 3.825 1.972 7.012 4.137 9.564 6.496 2.81 3.213 4.975 6.402 6.496 9.565 1.46 4.043 2.252 7.99 2.374 11.84-.256 4.513-1.047 8.46-2.374 11.84-1.97 3.827-4.136 7.014-6.496 9.566-3.213 2.81-6.4 4.975-9.564 6.496-4.043 1.46-7.99 2.252-11.84 2.374zm113.102 0c-4.513-.257-8.46-1.048-11.84-2.374-3.825-1.972-7.013-4.137-9.565-6.496-2.81-3.213-4.975-6.402-6.496-9.565-1.46-4.043-2.25-7.99-2.373-11.84.256-4.514 1.047-8.46 2.374-11.842 1.972-3.824 4.137-7.013 6.497-9.565 3.214-2.808 6.4-4.973 9.564-6.496 4.044-1.46 7.99-2.252 11.842-2.374 4.513.257 8.46 1.048 11.84 2.374 3.826 1.972 7.014 4.137 9.565 6.496 2.81 3.213 4.975 6.402 6.496 9.565 1.46 4.043 2.252 7.99 2.374 11.84-.256 4.513-1.047 8.46-2.374 11.84-1.97 3.827-4.136 7.014-6.496 9.566-3.213 2.81-6.4 4.974-9.564 6.496-4.042 1.46-7.99 2.252-11.84 2.374z"/></svg>