<svg viewBox="0 0 512 512" xmlns="http://www.w3.org/2000/svg" fill="#fff"><path d="M65.82 415.035c-8.807 0-14.66-7.69-15.046-15.392V161.822c.286-5.43 2.74-9.933 7.058-13.1l95.29-59.555c2.437-1.433 4.953-2.19 7.506-2.19s5.105.78 7.542 2.212l87.317 54.67 87.353-54.692c2.437-1.433 4.954-2.19 7.507-2.19s5.103.778 7.54 2.21l95.292 59.56c4.372 3.206 6.734 7.726 7.02 13.156v237.817c-.398 8.355-5.533 15.32-14.995 15.32-2.668 0-5.207-.754-7.54-2.213l-87.318-54.672-87.354 54.693c-2.437 1.434-4.953 2.19-7.506 2.19s-5.104-.778-7.54-2.21l-87.32-54.673-87.352 54.693c-2.434 1.432-4.932 2.19-7.456 2.19zm14.547-42.315c21.755-13.66 43.51-27.322 65.267-40.982v-202.05l-65.267 40.98V372.72zm94.86-40.982c21.814 13.74 43.696 27.41 65.663 40.998V170.67l-65.664-40.99v202.06zm95.254 40.982l65.27-40.982v-202.05l-65.27 40.98V372.72zm94.86-40.982l65.268 40.981V170.667l-65.267-40.98v202.05z"/></svg>