<svg viewBox="0 0 512 512" xmlns="http://www.w3.org/2000/svg" fill="#fff"><path d="M448 65.008v-.016V448H64V172.48l19.008 4.016 73.008 14.496 91.008-60.48 5.472-3.52 6 1.008L348 143.008l74-58zm-32 65.488v.016l-54.016 41.984-5.52 4.512-6.992-1.008-89.984-14.976-90.512 60.48-5.472 3.488-6.496-1.472-61.008-12v65.44l62 25.072 89.008-59.52 6.496-4 7.488 2.496 87.488 29.007 67.52-53.52v-86zm0 127.008v.016l-54 42.976-7.008 5.504-8-2.992-88-29.488-89.984 60L162 338l-8-2.992L96 312v104h320V257.504z"/></svg>