<svg viewBox="0 0 512 512" xmlns="http://www.w3.org/2000/svg" fill="#fff"><path d="M131.008 80h-.048 26.065l3.456 10.496L191.52 176h.48v.992l14.993 41.504 1.007 2.496V240h-32v-13.504L169.504 208h-51.008L112 226.496V240H80v-19.008l.992-2.496L96 177.008V176h.512l30.977-85.504zM352 80h32v298.992l41.504-41.488L448 360l-68.48 68.992L368 440l-11.52-10.992L288 360l22.496-22.496L352 379.008V80zm-208 58.496L130.496 176h27.008zM80 272h127.984v38.496l-4.48 5.024L118.99 400H208v32H80v-38.496l4.48-5.024L169.007 304H80v-32z"/></svg>