<svg viewBox="0 0 512 512" xmlns="http://www.w3.org/2000/svg" fill="#fff"><path d="M395.008 64.48h-.016c13.392 0 26.88 5.392 37.008 15.52 20.273 20.272 20.273 53.232-.048 73.488l-.48.992-1.008 1.023 9.504 9.49L428.96 176 179.536 425.52l-3.52 3.488-5.008 1.008-88 17.52-23.472 4.96 4.96-23.488 17.504-88L83.008 336l3.488-3.52L336 83.007 347.008 72l10 9.503L358.496 80c10.144-10.128 23.12-15.52 36.512-15.52zm0 31.52v.016c-4.992 0-9.744 2.24-14 6.496l-1.488 1.504 28.48 28.48 1.504-1.488c8.528-8.544 8.528-19.968 0-28.512C405.248 98.24 399.968 96 395.008 96zm-47.52 21.008h.03L324 140.016l48 48 23.007-23.52zm-45.488 46l-.016.017-167.52 167.008 29.024 6.48 10 2 2.015 9.983L182 377.52 349.008 210zm-190.48 194.48l-.016.032-6.51 32.48 17.022 16.992 32.48-6.51-8-34.994z"/></svg>