<svg viewBox="0 0 512 512" xmlns="http://www.w3.org/2000/svg" fill="#fff"><path d="M470.68 479H41l86.16-258.477H239.7v-54.275c-16.3-4.3-29.697-12.62-40.193-24.964-10.68-13.858-16.13-29.19-16.36-46 .518-20.047 7.598-37.123 21.242-51.226 14.932-14.04 32.082-21.194 51.448-21.46 19.91.522 36.986 7.676 51.226 21.46 14.042 14.923 21.197 32 21.462 51.227-.687 26.926-12.27 47.595-34.75 62.01-7.083 4.1-14.35 7.085-21.8 8.953v54.275H384.52zM215.427 95.285c.77 17.606 8.982 30.027 24.632 37.26 5.304 1.978 10.564 3.03 15.78 3.153 17.606-.77 30.027-8.982 37.26-24.632 1.978-5.306 3.03-10.565 3.153-15.78-.77-17.607-8.98-30.028-24.632-37.262-5.304-1.977-10.564-3.028-15.78-3.152-17.606.77-30.027 8.98-37.26 24.632-1.978 5.305-3.03 10.565-3.153 15.78zm56.55 157.514v104.03c-.545 2.078-1.327 3.724-2.348 4.937-6.526 4.315-14.17 5.18-22.927 2.594-1.994-.933-3.544-1.797-4.652-2.593-1.29-1.822-2.073-3.466-2.347-4.936V252.8h-89.336L85.87 446.725h339.94L361.314 252.8h-89.335z"/></svg>