<svg viewBox="0 0 512 512" xmlns="http://www.w3.org/2000/svg" fill="#fff"><path d="M400 64.48v.03c12.224 0 24.273 4.77 33.504 14 18.448 18.465 18.448 48.545 0 67.01L275.52 304.014l-3.52 3.52-5.007.96-56 11.04-23.473 4.96 4.96-23.488 11.04-56 .96-5.008 3.52-3.52L366.496 78.496C375.728 69.28 387.76 64.48 400 64.48zm0 31.04v-.048c-3.76 0-7.424 1.92-10.992 5.488L234 255.968l-5.52 27.52 27.52-5.503 155.008-154.977c7.135-7.15 7.135-14.864 0-22-3.584-3.567-7.248-5.488-11.008-5.488zM64 128h211.008l-32 32H96v256h256V268.992l32-32V448H64V128z"/></svg>