<svg viewBox="0 0 512 512" xmlns="http://www.w3.org/2000/svg" fill="#fff"><path d="M32 112h416c17.488 0 32 14.512 32 32v224c0 17.488-14.512 32-32 32H32c-17.488 0-32-14.512-32-32V144c0-17.488 14.512-32 32-32zm0 32v224h416V144H32zm32 32h32v32H64v-32zm64 0h32v32h-32v-32zm64 0h32v32h-32v-32zm64 0h32v32h-32v-32zm64 0h32v32h-32v-32zm64 0h32v32h-32v-32zM64 240h64v32H64v-32zm96 0h32v32h-32v-32zm64 0h32v32h-32v-32zm64 0h32v32h-32v-32zm64 0h64v32h-64v-32zM64 304h64v32H64v-32zm96 0h160v32H160v-32zm192 0h64v32h-64v-32z"/></svg>