<svg viewBox="0 0 512 512" xmlns="http://www.w3.org/2000/svg" fill="#fff"><path d="M80 128v256.016h134.496l5.023 4.513L256 425.007l36.496-36.527 5.008-4.48H432V128H80zM48 96h416v320H310.992l-43.457 43.504-11.52 10.992-11.52-10.976L201.007 416H48V96zm172 108.504v.016l11.52 11.008 36.48 36.48 20.48-20.512L300 220.504l11.52 10.977 41.988 41.99L402 321l-22.99 23.04-42.05-42.048-.48.48-36.48-36.48-20.48 20.496L268 297.48l-11.52-11.008-36.48-36.48-52.48 52.544-.05-.05L130 340l-23.04-23.04 64-64 1.217-1.16 36.303-36.304zM368.504 168c8.832 0 27 18.168 27 27s-18.168 27-27 27c-8.848 0-27-18.168-27-27s18.152-27 27-27z"/></svg>