<svg viewBox="0 0 512 512" xmlns="http://www.w3.org/2000/svg" fill="#fff"><path d="M149.937 72.137c33.376-19.058 68.89-28.546 106.54-28.467 37.79.08 73.065 9.57 105.816 28.467 31.836 19.03 56.998 44.19 75.482 75.48 18.94 33.173 28.49 68.566 28.65 106.18-.32 38.236-9.87 73.628-28.65 106.18-19.03 31.834-44.19 56.997-75.482 75.482-33.172 18.938-68.564 28.487-106.18 28.648-38.234-.32-73.627-9.868-106.177-28.65-31.836-19.03-56.998-44.19-75.482-75.482-18.94-33.17-28.492-68.563-28.65-106.18.32-38.234 9.868-73.626 28.65-106.177 19.03-31.836 44.19-57 75.482-75.483zm204.59 101.64h63.357c-15.985-31.678-39.415-56.865-70.287-75.56-9.013-5.253-18.016-9.63-27.01-13.136 15.375 23.544 26.687 53.11 33.94 88.698zm7.663 80.02c0 16.774-1.005 33.532-3.016 50.274h70.44c4.626-16.46 6.917-33.372 6.874-50.733-.043-17.363-2.334-33.968-6.874-49.815h-70.44c2.01 16.745 3.016 33.503 3.016 50.275zM256.114 434.363c6.542-.354 12.423-2.092 17.64-5.21 5.838-4.03 11.018-8.718 15.542-14.063 15.472-19.693 27.064-46.785 34.78-81.274H188.153c5.107 22.46 12.394 42.91 21.86 61.342 4.075 7.62 8.38 14.264 12.92 19.932 5.137 5.902 10.317 10.59 15.54 14.062 5.84 3.304 11.72 5.04 17.64 5.21zm-76.33-180.566c0 15.726 1.08 32.483 3.245 50.274H329.2c2.163-17.79 3.245-34.547 3.245-50.273 0-15.726-1.082-32.483-3.246-50.274H183.03c-2.165 17.79-3.247 34.548-3.247 50.274zm-29.746 0c0-16.773 1.006-33.53 3.017-50.274h-70.44c-4.626 16.462-6.917 33.373-6.874 50.736.043 17.36 2.334 33.965 6.875 49.81h70.44c-2.01-16.743-3.017-33.5-3.017-50.273zM256.114 73.23c-6.542.355-12.422 2.093-17.64 5.212-5.838 4.03-11.017 8.718-15.54 14.063-15.473 19.692-27.066 46.784-34.78 81.273h135.92c-5.106-22.46-12.394-42.908-21.86-61.343-4.074-7.62-8.38-14.263-12.918-19.93-5.138-5.903-10.32-10.59-15.54-14.063-5.84-3.305-11.722-5.04-17.642-5.212zM157.7 173.778c3.755-18.423 7.73-33.13 11.928-44.12 6.787-17.777 14.125-32.635 22.012-44.577-32.163 12.738-58.837 32.94-80.022 60.605-6.767 9.185-12.523 18.55-17.273 28.093H157.7zm0 160.037H94.346c15.985 31.68 39.414 56.866 70.287 75.564 9.013 5.25 18.016 9.626 27.008 13.132-15.374-23.543-26.686-53.11-33.94-88.697zm196.828 0c-3.754 18.423-7.73 33.13-11.927 44.12-6.787 17.776-14.125 32.635-22.013 44.577 32.164-12.737 58.838-32.937 80.024-60.603 6.767-9.186 12.524-18.55 17.273-28.095h-63.355z"/></svg>