<svg viewBox="0 0 512 512" xmlns="http://www.w3.org/2000/svg" fill="#fff"><path d="M355.425 280.08h23.12v16.253c9.595 1.688 18.334 5.48 26.01 10.844l10.832-10.844 16.264 16.254-10.842 10.843c5.364 7.675 9.155 16.415 10.843 26.01h16.254v23.12h-16.242c-1.71 9.675-5.41 18.634-10.843 26.38l11.212 11.907-16.993 15.906-10.82-11.56c-7.595 5.202-16.254 8.81-25.664 10.474v16.253h-23.12v-16.243c-9.594-1.687-18.334-5.48-26.01-10.842l-11.906 12.3-16.647-16.647 12.288-11.907c-5.363-7.675-9.154-16.414-10.843-26.01h-16.253v-23.12h16.253c1.665-9.408 5.283-18.068 10.486-25.662l-11.56-10.83 15.895-16.995 11.93 11.213c7.71-5.445 16.68-9.132 26.357-10.843V280.08zm11.56 38.298v-.01c-23.757 0-42.634 18.876-42.634 42.632s18.878 42.633 42.634 42.633 42.633-18.877 42.633-42.633-18.877-42.622-42.633-42.622zM284.48 303.52C266.463 293.728 246.015 288 224 288c-70.88 0-128 57.12-128 128H64c0-65.92 40.43-122.512 97.503-146.99C131.68 248.832 112 214.56 112 176c0-61.663 50.335-112 112-112 61.664 0 112 50.336 112 112 0 38.56-19.68 72.848-49.504 92.993 7.776 3.328 15.423 7.055 22.496 11.488 3.448-3.3-22.887 21.936-24.512 23.04zM224 96c-44.368 0-80 35.632-80 80s35.632 80 80 80 80-35.632 80-80-35.632-80-80-80zm60.48 207.52z"/></svg>