<svg viewBox="0 0 512 512" xmlns="http://www.w3.org/2000/svg" fill="#fff"><path d="M256.175 76.422c34.677 0 63.494 9.95 86.606 23.467 37.352 21.846 66.03 56.722 78.897 102.58 4.1 14.61 6.15 29.816 6.15 45.603v155.514c0 20.63-12.32 34.62-27.06 40.94-5.408 2.317-11.208 3.473-17.354 3.473H339V274.35h44.413c4.146 0 8.197.564 12.138 1.69v-27.966c0-42.383-18.504-75.994-40.942-98.433-22.46-22.46-56.02-40.942-98.433-40.942-42.382 0-75.996 18.505-98.433 40.943-22.462 22.462-40.943 56.02-40.943 98.434v27.966c3.94-1.126 7.99-1.69 12.137-1.69h44.413V448h-44.413c-20.63 0-34.62-12.318-40.94-27.06-2.317-5.407-3.473-11.207-3.473-17.353V248.073c0-34.676 9.95-63.494 23.466-86.606 21.843-37.35 56.725-66.028 102.58-78.896 14.613-4.1 29.818-6.148 45.605-6.148zM116.8 403.587c0 6.495 5.643 12.138 12.137 12.138h12.137v-109.1h-12.137c-6.495 0-12.138 5.642-12.138 12.136v84.827zm278.75-84.825c0-6.495-5.643-12.138-12.137-12.138h-12.137v109.1h12.137c6.495 0 12.138-5.642 12.138-12.136v-84.826z"/></svg>