<svg viewBox="0 0 512 512" xmlns="http://www.w3.org/2000/svg" fill="#fff"><path d="M116 419.725H31.175V78.422c0-14.042 8.45-23.56 18.433-27.902 3.65-1.587 7.614-2.374 11.84-2.374h106.033c18.564 0 31.32 6.15 41.28 14.614 5.504 4.68 11.054 8.85 18.12 11.71 3.175 1.283 6.93 1.952 11.29 1.952h219.133c14.042 0 23.56 8.45 27.9 18.434 1.587 3.65 2.374 7.614 2.374 11.84v313.028h-84.825V448h-88.825v-28.276H204.825V448H116v-28.276zM194.484 92.56c-7.277-6.285-13.586-12.138-27.003-12.138H63.45v24.276h104.03c13.425 0 19.724-5.85 27.004-12.138zm10.34 294.89h109.103v-52.552H204.825v52.55zm-44.41-109.1c-6.496 0-12.14 5.643-12.14 12.137v125.238h24.277v-113.1H346.2v113.1h24.276V290.487c0-6.495-5.644-12.138-12.138-12.138H160.412zm294.89 109.1V108.696H238.17c-9.136 0-15.102 3.165-20.633 6.943-6.406 4.376-12.154 9.81-19.26 13.79-8.14 4.558-17.797 7.543-30.795 7.543H63.45V387.45H116v-96.963c0-20.63 12.318-34.62 27.06-40.94 5.408-2.317 11.208-3.473 17.353-3.473H358.34c20.63 0 34.62 12.317 40.938 27.06 2.318 5.407 3.474 11.207 3.474 17.353v96.963h52.55z"/></svg>