<svg viewBox="0 0 512 512" xmlns="http://www.w3.org/2000/svg" fill="#fff"><path d="M144.24 347.185c0 7.078 7.395 13.574 14.767 13.574 6.075 0 10.377-3.674 14.092-7.388l.42.422 209.33-203.428c7.536-8.222 11.21-17.44 11.21-27.91 0-14.415-4.413-26.512-10.517-35.373-9.176-8.35-19.646-12.453-31.677-12.453-12.722 0-23.58 4.387-33.35 13.385l-213.083 207.13C88.83 312.268 80.74 330.22 80.74 349.168c0 18.966 7.792 36.05 23.814 51.555 15.443 14.432 33.136 21.56 53.355 21.56 21.608 0 40.053-7.748 56.624-23.003.207-.08.975-.528.88-.507l224.41-218.01 22.625 22.153L237.51 421.45c-23.276 21.632-49.628 32.63-80.168 32.63-28.643 0-54.075-10.133-76.142-30.347-20.637-21.44-31.063-46.34-31.063-74.424 0-28.714 10.907-54.134 32.312-76.35L295.257 65.71c16.916-15.25 35.845-23.083 57.884-23.083 20.33 0 38.375 7.365 54.02 21.684 8.64 11.984 14.117 28.682 16.68 50.392.392 3.33.59 6.604.59 9.82 0 17.965-5.242 34.927-18.588 48.024l-21.457 21.06-192.14 183.405c-10.04 9.183-21.48 13.98-35.296 13.98-11.953 0-22.57-4.178-31.687-12.496-8.362-8.616-12.712-18.35-12.712-28.98 0-13.658 5.42-24.464 15.047-34.383 0 0 17.858-19.45 17.96-19.55l142.648-138.63 22.622 22.15-162.092 158.076c-3.126 3.365-4.492 6.65-4.492 10.008z"/></svg>