<svg viewBox="0 0 512 512" xmlns="http://www.w3.org/2000/svg" fill="#fff"><path d="M425.477 256.35h2v32.274h-2c-38.518.525-71.365 14.135-98.543 40.833C299.98 357.343 286.37 390.19 286.1 428v2h-32.274v-2c.344-31.19 8.167-60.058 23.466-86.606 24.073-39.875 58.266-66.174 102.58-78.895 14.61-4.1 29.81-6.15 45.605-6.15zm0-84.827h2v32.274h-2c-40.75.347-78.408 10.565-112.974 30.653-33.895 20.412-60.754 47.27-80.576 80.577-20.26 35.235-30.478 72.893-30.653 112.973v2H169v-2c.347-46.815 11.998-90.006 34.954-129.573 23.18-38.713 53.83-69.363 91.95-91.95 40.547-23.302 83.738-34.954 129.572-34.954zm2-84.826v32.275h-2c-55.85.35-107.757 14.433-155.722 42.25-46.782 27.855-83.8 64.873-111.055 111.057-27.992 48.64-42.076 100.547-42.25 155.72v2H84.173v-2c.348-61.82 15.903-119.222 46.662-172.205C161.49 204.23 202.3 163.418 253.272 133.36c53.66-30.933 111.062-46.488 172.205-46.663h2zm-44.414 254.477c12.373.5 22.858 4.817 31.457 12.957 4.061 4.482 7.222 9.184 9.482 14.103 2.19 5.798 3.348 11.583 3.474 17.354-.5 12.372-4.817 22.858-12.956 31.457-4.482 4.061-9.184 7.222-14.104 9.482-5.797 2.19-11.583 3.348-17.353 3.474-12.373-.5-22.858-4.817-31.456-12.956-4.062-4.482-7.223-9.184-9.483-14.104-2.19-5.797-3.348-11.583-3.474-17.353.5-12.374 4.817-22.86 12.957-31.456 4.48-4.06 9.182-7.222 14.102-9.482 5.797-2.19 11.582-3.348 17.353-3.474z"/></svg>