<svg viewBox="0 0 512 512" xmlns="http://www.w3.org/2000/svg"><path d="M420 296c0-88.56-75.44-146-164-146S92 207.44 92 296H60c0-105.856 90.144-178 196-178s196 72.144 196 178h-32zm-84.33-13.478c0-10.547-2.195-20.845-6.537-30.81-8.476-19.452-23.3-33.87-43.935-42.948-9.5-4.18-20.486-5.725-30.087-5.743-.23.05-22.055 2.615-31.228 6.52-19.603 8.34-33.983 23.125-42.8 43.79-4.236 9.926-5.93 20.843-5.93 30.696 0 10.547 2.196 20.845 6.538 30.808 8.512 19.538 23.127 34.544 44.045 43 9.775 3.95 19.656 5.863 29.476 5.863 10.71 0 21.36-2.275 31.73-6.688 19.603-8.342 33.983-23.127 42.8-43.79 4.237-9.928 5.93-20.845 5.93-30.698zm-127.117 1.005v-.095l.017-.093c.783-4.132 1.155-11.558 3.333-17.444 5.466-12.35 13.78-20.704 25.227-25.575 5.917-2.517 11.89-3.753 17.986-3.753 21.72 0 36.657 13.115 43.263 28.26 2.61 5.987 3.89 12.027 3.89 18.29l-.017.092c-.783 4.13-1.155 11.556-3.333 17.442-5.467 12.35-13.78 20.704-25.227 25.575-5.917 2.518-11.89 3.754-17.987 3.754-21.72 0-36.656-13.114-43.262-28.26-2.612-5.986-3.89-12.026-3.89-18.193z"/></svg>