<svg viewBox="0 0 512 512" xmlns="http://www.w3.org/2000/svg" fill="#fff"><path d="M320 48c79.12 0 144 64.88 144 144s-64.88 144-144 144c-23.12 0-45.12-6.24-64-15.52V368h-48v48h-48v48H48V345.504l4.48-5.023L178.498 215.01C177.36 207.648 176 200.32 176 192c0-79.12 64.88-144 144-144zm0 32h.016c-61.68 0-112 50.32-112 112 0 7.824 1.408 16.416 3.008 26.016l1.472 8.48-6 5.504L80 358.992V432h48v-48h48v-48h48v-48h37.504l4 2c15.216 8.304 35.136 14 54.496 14 61.68 0 112-50.32 112-112S381.68 80 320 80zm32 48c17.68 0 32 14.32 32 32s-14.32 32-32 32-32-14.32-32-32 14.32-32 32-32z"/></svg>